; NON-PLATED HOLES START AT T1
; THROUGH (PLATED) HOLES START AT T100
M48
INCH
T1C0.047244
T100C0.036000
T101C0.051181
T102C0.035000
T103C0.032000
T104C0.030000
T105C0.038000
%
T1
X004776Y022662
X009747Y023683
X000839Y023646
X007779Y020730
X005810Y022699
X000839Y022662
X004776Y023646
X005810Y023683
X009747Y022699
X002807Y020693
T100
X012134Y014617
X012134Y007617
X012134Y011617
X006134Y014617
X012134Y004617
X006134Y007617
X006134Y011617
X012134Y001617
X006134Y004617
X006134Y001617
X012134Y009617
X012134Y013617
X012134Y006617
X006134Y009617
X012134Y010617
X006134Y013617
X012134Y003617
X006134Y006617
X006134Y010617
X006134Y003617
X012134Y015617
X012134Y008617
X012134Y012617
X006134Y015617
X012134Y005617
X006134Y008617
X006134Y012617
X012134Y002617
X006134Y005617
X006134Y002617
T101
X003792Y020693
X008763Y020730
X004776Y020693
X009747Y020730
X006795Y020730
X002807Y022662
X000839Y020693
X005810Y020730
X001823Y020693
X007779Y022699
T102
X000664Y007318
X004823Y012446
X001460Y010516
X003615Y013871
X000664Y008308
X004664Y006305
X000787Y016700
X000800Y011544
X004664Y007318
X000664Y005216
X004664Y008308
X002460Y010516
X004823Y016447
X004664Y005216
X010875Y017534
X006875Y017534
X001634Y013761
X004462Y010933
X012063Y018668
X008063Y018668
X000664Y006305
X000800Y015544
T103
X004784Y018583
X003784Y018583
X004284Y017833
T104
X010868Y022602
X011870Y022602
X002637Y017819
X001635Y017819
T105
X000655Y001653
X000655Y000637
X000655Y002664
X000655Y003689
T00
M30
