G04 MADE WITH FRITZING*
G04 WWW.FRITZING.ORG*
G04 DOUBLE SIDED*
G04 HOLES PLATED*
G04 CONTOUR ON CENTER OF CONTOUR VECTOR*
%ASAXBY*%
%FSLAX23Y23*%
%MOIN*%
%OFA0B0*%
%SFA1.0B1.0*%
%ADD10C,0.075000*%
%ADD11C,0.078000*%
%ADD12C,0.086000*%
%ADD13C,0.070000*%
%ADD14C,0.074000*%
%ADD15R,0.069972X0.070000*%
%ADD16C,0.024000*%
%ADD17C,0.020000*%
%ADD18R,0.001000X0.001000*%
%LNCOPPER1*%
G90*
G70*
G54D10*
X1060Y2146D03*
G54D11*
X66Y64D03*
X66Y369D03*
G54D12*
X281Y2266D03*
X379Y2069D03*
X478Y2069D03*
X182Y2069D03*
X84Y2069D03*
X281Y2266D03*
X379Y2069D03*
X478Y2069D03*
X182Y2069D03*
X84Y2069D03*
X778Y2270D03*
X876Y2073D03*
X975Y2073D03*
X680Y2073D03*
X581Y2073D03*
X778Y2270D03*
X876Y2073D03*
X975Y2073D03*
X680Y2073D03*
X581Y2073D03*
G54D13*
X613Y1562D03*
X613Y1462D03*
X613Y1362D03*
X613Y1262D03*
X613Y1162D03*
X613Y1062D03*
X613Y962D03*
X613Y862D03*
X613Y762D03*
X613Y662D03*
X613Y562D03*
X613Y462D03*
X613Y362D03*
X613Y262D03*
X613Y162D03*
X1213Y1562D03*
X1213Y1462D03*
X1213Y1362D03*
X1213Y1262D03*
X1213Y1162D03*
X1213Y1062D03*
X1213Y962D03*
X1213Y862D03*
X1213Y762D03*
X1213Y662D03*
X1213Y562D03*
X1213Y462D03*
X1213Y362D03*
X1213Y262D03*
X1213Y162D03*
G54D11*
X66Y266D03*
X66Y165D03*
G54D10*
X688Y1753D03*
X1088Y1753D03*
X806Y1867D03*
X1206Y1867D03*
G54D13*
X1087Y2260D03*
X1187Y2260D03*
G54D10*
X246Y1052D03*
X146Y1052D03*
G54D13*
X164Y1782D03*
X264Y1782D03*
G54D10*
X446Y1093D03*
X163Y1376D03*
X80Y1154D03*
X80Y1554D03*
X362Y1387D03*
X79Y1670D03*
X466Y522D03*
X66Y522D03*
X466Y631D03*
X66Y631D03*
X466Y732D03*
X66Y732D03*
X466Y831D03*
X66Y831D03*
G54D14*
X478Y1858D03*
X428Y1783D03*
X378Y1858D03*
X478Y1858D03*
X428Y1783D03*
X378Y1858D03*
G54D10*
X482Y1645D03*
X482Y1245D03*
G54D15*
X613Y1562D03*
G54D16*
X725Y2003D02*
X502Y1872D01*
D02*
X771Y2234D02*
X725Y2003D01*
D02*
X356Y1843D02*
X286Y1796D01*
D02*
X393Y1705D02*
X659Y1749D01*
D02*
X286Y1769D02*
X393Y1705D01*
D02*
X1121Y1498D02*
X1124Y456D01*
D02*
X1200Y1839D02*
X1121Y1498D01*
D02*
X1124Y456D02*
X1193Y383D01*
D02*
X163Y1988D02*
X410Y1988D01*
D02*
X410Y1988D02*
X454Y2041D01*
D02*
X83Y1923D02*
X163Y1988D01*
D02*
X79Y1699D02*
X83Y1923D01*
G36*
X232Y2055D02*
X232Y2051D01*
X230Y2051D01*
X230Y2047D01*
X228Y2047D01*
X228Y2043D01*
X226Y2043D01*
X226Y2041D01*
X224Y2041D01*
X224Y2037D01*
X222Y2037D01*
X222Y2035D01*
X280Y2035D01*
X280Y2037D01*
X270Y2037D01*
X270Y2039D01*
X266Y2039D01*
X266Y2041D01*
X262Y2041D01*
X262Y2043D01*
X260Y2043D01*
X260Y2045D01*
X258Y2045D01*
X258Y2047D01*
X256Y2047D01*
X256Y2049D01*
X254Y2049D01*
X254Y2051D01*
X252Y2051D01*
X252Y2055D01*
X232Y2055D01*
G37*
D02*
G36*
X310Y2055D02*
X310Y2053D01*
X308Y2053D01*
X308Y2049D01*
X306Y2049D01*
X306Y2047D01*
X304Y2047D01*
X304Y2045D01*
X302Y2045D01*
X302Y2043D01*
X298Y2043D01*
X298Y2041D01*
X296Y2041D01*
X296Y2039D01*
X292Y2039D01*
X292Y2037D01*
X282Y2037D01*
X282Y2035D01*
X340Y2035D01*
X340Y2037D01*
X338Y2037D01*
X338Y2039D01*
X336Y2039D01*
X336Y2043D01*
X334Y2043D01*
X334Y2047D01*
X332Y2047D01*
X332Y2049D01*
X330Y2049D01*
X330Y2055D01*
X310Y2055D01*
G37*
D02*
G36*
X220Y2035D02*
X220Y2033D01*
X342Y2033D01*
X342Y2035D01*
X220Y2035D01*
G37*
D02*
G36*
X220Y2035D02*
X220Y2033D01*
X342Y2033D01*
X342Y2035D01*
X220Y2035D01*
G37*
D02*
G36*
X218Y2033D02*
X218Y2031D01*
X216Y2031D01*
X216Y2011D01*
X346Y2011D01*
X346Y2031D01*
X344Y2031D01*
X344Y2033D01*
X218Y2033D01*
G37*
D02*
G36*
X122Y2037D02*
X122Y2033D01*
X120Y2033D01*
X120Y2031D01*
X116Y2031D01*
X116Y2029D01*
X114Y2029D01*
X114Y2027D01*
X112Y2027D01*
X112Y2025D01*
X108Y2025D01*
X108Y2023D01*
X106Y2023D01*
X106Y2021D01*
X100Y2021D01*
X100Y2019D01*
X94Y2019D01*
X94Y2017D01*
X154Y2017D01*
X154Y2027D01*
X152Y2027D01*
X152Y2029D01*
X150Y2029D01*
X150Y2031D01*
X148Y2031D01*
X148Y2033D01*
X146Y2033D01*
X146Y2035D01*
X144Y2035D01*
X144Y2037D01*
X122Y2037D01*
G37*
D02*
G36*
X40Y2025D02*
X40Y2017D01*
X74Y2017D01*
X74Y2019D01*
X68Y2019D01*
X68Y2021D01*
X62Y2021D01*
X62Y2023D01*
X60Y2023D01*
X60Y2025D01*
X40Y2025D01*
G37*
D02*
G36*
X40Y2017D02*
X40Y2015D01*
X154Y2015D01*
X154Y2017D01*
X40Y2017D01*
G37*
D02*
G36*
X40Y2017D02*
X40Y2015D01*
X154Y2015D01*
X154Y2017D01*
X40Y2017D01*
G37*
D02*
G36*
X40Y2015D02*
X40Y1805D01*
X60Y1805D01*
X60Y1921D01*
X62Y1921D01*
X62Y1933D01*
X64Y1933D01*
X64Y1937D01*
X66Y1937D01*
X66Y1939D01*
X68Y1939D01*
X68Y1941D01*
X70Y1941D01*
X70Y1943D01*
X74Y1943D01*
X74Y1945D01*
X76Y1945D01*
X76Y1947D01*
X78Y1947D01*
X78Y1949D01*
X80Y1949D01*
X80Y1951D01*
X84Y1951D01*
X84Y1953D01*
X86Y1953D01*
X86Y1955D01*
X88Y1955D01*
X88Y1957D01*
X90Y1957D01*
X90Y1959D01*
X94Y1959D01*
X94Y1961D01*
X96Y1961D01*
X96Y1963D01*
X98Y1963D01*
X98Y1965D01*
X100Y1965D01*
X100Y1967D01*
X104Y1967D01*
X104Y1969D01*
X106Y1969D01*
X106Y1971D01*
X108Y1971D01*
X108Y1973D01*
X110Y1973D01*
X110Y1975D01*
X114Y1975D01*
X114Y1977D01*
X116Y1977D01*
X116Y1979D01*
X118Y1979D01*
X118Y1981D01*
X120Y1981D01*
X120Y1983D01*
X122Y1983D01*
X122Y1985D01*
X126Y1985D01*
X126Y1987D01*
X128Y1987D01*
X128Y1989D01*
X130Y1989D01*
X130Y1991D01*
X132Y1991D01*
X132Y1993D01*
X136Y1993D01*
X136Y1995D01*
X138Y1995D01*
X138Y1997D01*
X140Y1997D01*
X140Y1999D01*
X142Y1999D01*
X142Y2001D01*
X146Y2001D01*
X146Y2003D01*
X148Y2003D01*
X148Y2005D01*
X150Y2005D01*
X150Y2007D01*
X154Y2007D01*
X154Y2015D01*
X40Y2015D01*
G37*
D02*
G36*
X1206Y1771D02*
X1206Y1763D01*
X1204Y1763D01*
X1204Y1755D01*
X1202Y1755D01*
X1202Y1745D01*
X1200Y1745D01*
X1200Y1737D01*
X1198Y1737D01*
X1198Y1729D01*
X1196Y1729D01*
X1196Y1719D01*
X1194Y1719D01*
X1194Y1711D01*
X1192Y1711D01*
X1192Y1703D01*
X1190Y1703D01*
X1190Y1693D01*
X1188Y1693D01*
X1188Y1685D01*
X1186Y1685D01*
X1186Y1677D01*
X1184Y1677D01*
X1184Y1667D01*
X1182Y1667D01*
X1182Y1659D01*
X1180Y1659D01*
X1180Y1651D01*
X1178Y1651D01*
X1178Y1641D01*
X1176Y1641D01*
X1176Y1633D01*
X1174Y1633D01*
X1174Y1625D01*
X1172Y1625D01*
X1172Y1615D01*
X1170Y1615D01*
X1170Y1607D01*
X1168Y1607D01*
X1168Y1599D01*
X1166Y1599D01*
X1166Y1595D01*
X1186Y1595D01*
X1186Y1597D01*
X1188Y1597D01*
X1188Y1599D01*
X1192Y1599D01*
X1192Y1601D01*
X1196Y1601D01*
X1196Y1603D01*
X1200Y1603D01*
X1200Y1605D01*
X1206Y1605D01*
X1206Y1607D01*
X1226Y1607D01*
X1226Y1771D01*
X1206Y1771D01*
G37*
D02*
G36*
X1154Y1545D02*
X1154Y1537D01*
X1152Y1537D01*
X1152Y1529D01*
X1150Y1529D01*
X1150Y1519D01*
X1148Y1519D01*
X1148Y1511D01*
X1146Y1511D01*
X1146Y1503D01*
X1144Y1503D01*
X1144Y903D01*
X1146Y903D01*
X1146Y465D01*
X1148Y465D01*
X1148Y463D01*
X1168Y463D01*
X1168Y467D01*
X1170Y467D01*
X1170Y475D01*
X1172Y475D01*
X1172Y479D01*
X1174Y479D01*
X1174Y483D01*
X1176Y483D01*
X1176Y487D01*
X1178Y487D01*
X1178Y489D01*
X1180Y489D01*
X1180Y491D01*
X1182Y491D01*
X1182Y493D01*
X1184Y493D01*
X1184Y495D01*
X1186Y495D01*
X1186Y497D01*
X1188Y497D01*
X1188Y499D01*
X1192Y499D01*
X1192Y501D01*
X1196Y501D01*
X1196Y523D01*
X1192Y523D01*
X1192Y525D01*
X1188Y525D01*
X1188Y527D01*
X1186Y527D01*
X1186Y529D01*
X1184Y529D01*
X1184Y531D01*
X1182Y531D01*
X1182Y533D01*
X1180Y533D01*
X1180Y535D01*
X1178Y535D01*
X1178Y537D01*
X1176Y537D01*
X1176Y541D01*
X1174Y541D01*
X1174Y545D01*
X1172Y545D01*
X1172Y549D01*
X1170Y549D01*
X1170Y557D01*
X1168Y557D01*
X1168Y567D01*
X1170Y567D01*
X1170Y575D01*
X1172Y575D01*
X1172Y579D01*
X1174Y579D01*
X1174Y583D01*
X1176Y583D01*
X1176Y587D01*
X1178Y587D01*
X1178Y589D01*
X1180Y589D01*
X1180Y591D01*
X1182Y591D01*
X1182Y593D01*
X1184Y593D01*
X1184Y595D01*
X1186Y595D01*
X1186Y597D01*
X1188Y597D01*
X1188Y599D01*
X1192Y599D01*
X1192Y601D01*
X1196Y601D01*
X1196Y623D01*
X1192Y623D01*
X1192Y625D01*
X1188Y625D01*
X1188Y627D01*
X1186Y627D01*
X1186Y629D01*
X1184Y629D01*
X1184Y631D01*
X1182Y631D01*
X1182Y633D01*
X1180Y633D01*
X1180Y635D01*
X1178Y635D01*
X1178Y637D01*
X1176Y637D01*
X1176Y641D01*
X1174Y641D01*
X1174Y645D01*
X1172Y645D01*
X1172Y649D01*
X1170Y649D01*
X1170Y657D01*
X1168Y657D01*
X1168Y667D01*
X1170Y667D01*
X1170Y675D01*
X1172Y675D01*
X1172Y679D01*
X1174Y679D01*
X1174Y683D01*
X1176Y683D01*
X1176Y687D01*
X1178Y687D01*
X1178Y689D01*
X1180Y689D01*
X1180Y691D01*
X1182Y691D01*
X1182Y693D01*
X1184Y693D01*
X1184Y695D01*
X1186Y695D01*
X1186Y697D01*
X1188Y697D01*
X1188Y699D01*
X1192Y699D01*
X1192Y701D01*
X1196Y701D01*
X1196Y723D01*
X1192Y723D01*
X1192Y725D01*
X1188Y725D01*
X1188Y727D01*
X1186Y727D01*
X1186Y729D01*
X1184Y729D01*
X1184Y731D01*
X1182Y731D01*
X1182Y733D01*
X1180Y733D01*
X1180Y735D01*
X1178Y735D01*
X1178Y737D01*
X1176Y737D01*
X1176Y741D01*
X1174Y741D01*
X1174Y745D01*
X1172Y745D01*
X1172Y749D01*
X1170Y749D01*
X1170Y757D01*
X1168Y757D01*
X1168Y767D01*
X1170Y767D01*
X1170Y775D01*
X1172Y775D01*
X1172Y779D01*
X1174Y779D01*
X1174Y783D01*
X1176Y783D01*
X1176Y787D01*
X1178Y787D01*
X1178Y789D01*
X1180Y789D01*
X1180Y791D01*
X1182Y791D01*
X1182Y793D01*
X1184Y793D01*
X1184Y795D01*
X1186Y795D01*
X1186Y797D01*
X1188Y797D01*
X1188Y799D01*
X1192Y799D01*
X1192Y801D01*
X1196Y801D01*
X1196Y823D01*
X1192Y823D01*
X1192Y825D01*
X1188Y825D01*
X1188Y827D01*
X1186Y827D01*
X1186Y829D01*
X1184Y829D01*
X1184Y831D01*
X1182Y831D01*
X1182Y833D01*
X1180Y833D01*
X1180Y835D01*
X1178Y835D01*
X1178Y837D01*
X1176Y837D01*
X1176Y841D01*
X1174Y841D01*
X1174Y845D01*
X1172Y845D01*
X1172Y849D01*
X1170Y849D01*
X1170Y857D01*
X1168Y857D01*
X1168Y867D01*
X1170Y867D01*
X1170Y875D01*
X1172Y875D01*
X1172Y879D01*
X1174Y879D01*
X1174Y883D01*
X1176Y883D01*
X1176Y887D01*
X1178Y887D01*
X1178Y889D01*
X1180Y889D01*
X1180Y891D01*
X1182Y891D01*
X1182Y893D01*
X1184Y893D01*
X1184Y895D01*
X1186Y895D01*
X1186Y897D01*
X1188Y897D01*
X1188Y899D01*
X1192Y899D01*
X1192Y901D01*
X1196Y901D01*
X1196Y923D01*
X1192Y923D01*
X1192Y925D01*
X1188Y925D01*
X1188Y927D01*
X1186Y927D01*
X1186Y929D01*
X1184Y929D01*
X1184Y931D01*
X1182Y931D01*
X1182Y933D01*
X1180Y933D01*
X1180Y935D01*
X1178Y935D01*
X1178Y937D01*
X1176Y937D01*
X1176Y941D01*
X1174Y941D01*
X1174Y945D01*
X1172Y945D01*
X1172Y949D01*
X1170Y949D01*
X1170Y957D01*
X1168Y957D01*
X1168Y967D01*
X1170Y967D01*
X1170Y975D01*
X1172Y975D01*
X1172Y979D01*
X1174Y979D01*
X1174Y983D01*
X1176Y983D01*
X1176Y987D01*
X1178Y987D01*
X1178Y989D01*
X1180Y989D01*
X1180Y991D01*
X1182Y991D01*
X1182Y993D01*
X1184Y993D01*
X1184Y995D01*
X1186Y995D01*
X1186Y997D01*
X1188Y997D01*
X1188Y999D01*
X1192Y999D01*
X1192Y1001D01*
X1196Y1001D01*
X1196Y1023D01*
X1192Y1023D01*
X1192Y1025D01*
X1188Y1025D01*
X1188Y1027D01*
X1186Y1027D01*
X1186Y1029D01*
X1184Y1029D01*
X1184Y1031D01*
X1182Y1031D01*
X1182Y1033D01*
X1180Y1033D01*
X1180Y1035D01*
X1178Y1035D01*
X1178Y1037D01*
X1176Y1037D01*
X1176Y1041D01*
X1174Y1041D01*
X1174Y1045D01*
X1172Y1045D01*
X1172Y1049D01*
X1170Y1049D01*
X1170Y1057D01*
X1168Y1057D01*
X1168Y1067D01*
X1170Y1067D01*
X1170Y1075D01*
X1172Y1075D01*
X1172Y1079D01*
X1174Y1079D01*
X1174Y1083D01*
X1176Y1083D01*
X1176Y1087D01*
X1178Y1087D01*
X1178Y1089D01*
X1180Y1089D01*
X1180Y1091D01*
X1182Y1091D01*
X1182Y1093D01*
X1184Y1093D01*
X1184Y1095D01*
X1186Y1095D01*
X1186Y1097D01*
X1188Y1097D01*
X1188Y1099D01*
X1192Y1099D01*
X1192Y1101D01*
X1196Y1101D01*
X1196Y1123D01*
X1192Y1123D01*
X1192Y1125D01*
X1188Y1125D01*
X1188Y1127D01*
X1186Y1127D01*
X1186Y1129D01*
X1184Y1129D01*
X1184Y1131D01*
X1182Y1131D01*
X1182Y1133D01*
X1180Y1133D01*
X1180Y1135D01*
X1178Y1135D01*
X1178Y1137D01*
X1176Y1137D01*
X1176Y1141D01*
X1174Y1141D01*
X1174Y1145D01*
X1172Y1145D01*
X1172Y1149D01*
X1170Y1149D01*
X1170Y1157D01*
X1168Y1157D01*
X1168Y1167D01*
X1170Y1167D01*
X1170Y1175D01*
X1172Y1175D01*
X1172Y1179D01*
X1174Y1179D01*
X1174Y1183D01*
X1176Y1183D01*
X1176Y1187D01*
X1178Y1187D01*
X1178Y1189D01*
X1180Y1189D01*
X1180Y1191D01*
X1182Y1191D01*
X1182Y1193D01*
X1184Y1193D01*
X1184Y1195D01*
X1186Y1195D01*
X1186Y1197D01*
X1188Y1197D01*
X1188Y1199D01*
X1192Y1199D01*
X1192Y1201D01*
X1196Y1201D01*
X1196Y1223D01*
X1192Y1223D01*
X1192Y1225D01*
X1188Y1225D01*
X1188Y1227D01*
X1186Y1227D01*
X1186Y1229D01*
X1184Y1229D01*
X1184Y1231D01*
X1182Y1231D01*
X1182Y1233D01*
X1180Y1233D01*
X1180Y1235D01*
X1178Y1235D01*
X1178Y1237D01*
X1176Y1237D01*
X1176Y1241D01*
X1174Y1241D01*
X1174Y1245D01*
X1172Y1245D01*
X1172Y1249D01*
X1170Y1249D01*
X1170Y1257D01*
X1168Y1257D01*
X1168Y1267D01*
X1170Y1267D01*
X1170Y1275D01*
X1172Y1275D01*
X1172Y1279D01*
X1174Y1279D01*
X1174Y1283D01*
X1176Y1283D01*
X1176Y1287D01*
X1178Y1287D01*
X1178Y1289D01*
X1180Y1289D01*
X1180Y1291D01*
X1182Y1291D01*
X1182Y1293D01*
X1184Y1293D01*
X1184Y1295D01*
X1186Y1295D01*
X1186Y1297D01*
X1188Y1297D01*
X1188Y1299D01*
X1192Y1299D01*
X1192Y1301D01*
X1196Y1301D01*
X1196Y1323D01*
X1192Y1323D01*
X1192Y1325D01*
X1188Y1325D01*
X1188Y1327D01*
X1186Y1327D01*
X1186Y1329D01*
X1184Y1329D01*
X1184Y1331D01*
X1182Y1331D01*
X1182Y1333D01*
X1180Y1333D01*
X1180Y1335D01*
X1178Y1335D01*
X1178Y1337D01*
X1176Y1337D01*
X1176Y1341D01*
X1174Y1341D01*
X1174Y1345D01*
X1172Y1345D01*
X1172Y1349D01*
X1170Y1349D01*
X1170Y1357D01*
X1168Y1357D01*
X1168Y1367D01*
X1170Y1367D01*
X1170Y1375D01*
X1172Y1375D01*
X1172Y1379D01*
X1174Y1379D01*
X1174Y1383D01*
X1176Y1383D01*
X1176Y1387D01*
X1178Y1387D01*
X1178Y1389D01*
X1180Y1389D01*
X1180Y1391D01*
X1182Y1391D01*
X1182Y1393D01*
X1184Y1393D01*
X1184Y1395D01*
X1186Y1395D01*
X1186Y1397D01*
X1188Y1397D01*
X1188Y1399D01*
X1192Y1399D01*
X1192Y1401D01*
X1196Y1401D01*
X1196Y1423D01*
X1192Y1423D01*
X1192Y1425D01*
X1188Y1425D01*
X1188Y1427D01*
X1186Y1427D01*
X1186Y1429D01*
X1184Y1429D01*
X1184Y1431D01*
X1182Y1431D01*
X1182Y1433D01*
X1180Y1433D01*
X1180Y1435D01*
X1178Y1435D01*
X1178Y1437D01*
X1176Y1437D01*
X1176Y1441D01*
X1174Y1441D01*
X1174Y1445D01*
X1172Y1445D01*
X1172Y1449D01*
X1170Y1449D01*
X1170Y1457D01*
X1168Y1457D01*
X1168Y1467D01*
X1170Y1467D01*
X1170Y1475D01*
X1172Y1475D01*
X1172Y1479D01*
X1174Y1479D01*
X1174Y1483D01*
X1176Y1483D01*
X1176Y1487D01*
X1178Y1487D01*
X1178Y1489D01*
X1180Y1489D01*
X1180Y1491D01*
X1182Y1491D01*
X1182Y1493D01*
X1184Y1493D01*
X1184Y1495D01*
X1186Y1495D01*
X1186Y1497D01*
X1188Y1497D01*
X1188Y1499D01*
X1192Y1499D01*
X1192Y1501D01*
X1196Y1501D01*
X1196Y1523D01*
X1192Y1523D01*
X1192Y1525D01*
X1188Y1525D01*
X1188Y1527D01*
X1186Y1527D01*
X1186Y1529D01*
X1184Y1529D01*
X1184Y1531D01*
X1182Y1531D01*
X1182Y1533D01*
X1180Y1533D01*
X1180Y1535D01*
X1178Y1535D01*
X1178Y1537D01*
X1176Y1537D01*
X1176Y1541D01*
X1174Y1541D01*
X1174Y1545D01*
X1154Y1545D01*
G37*
D02*
G36*
X118Y2369D02*
X118Y2361D01*
X116Y2361D01*
X116Y2353D01*
X114Y2353D01*
X114Y2349D01*
X112Y2349D01*
X112Y2347D01*
X110Y2347D01*
X110Y2343D01*
X108Y2343D01*
X108Y2341D01*
X106Y2341D01*
X106Y2339D01*
X102Y2339D01*
X102Y2337D01*
X100Y2337D01*
X100Y2335D01*
X96Y2335D01*
X96Y2333D01*
X90Y2333D01*
X90Y2331D01*
X472Y2331D01*
X472Y2333D01*
X466Y2333D01*
X466Y2335D01*
X462Y2335D01*
X462Y2337D01*
X458Y2337D01*
X458Y2339D01*
X456Y2339D01*
X456Y2341D01*
X454Y2341D01*
X454Y2343D01*
X452Y2343D01*
X452Y2345D01*
X450Y2345D01*
X450Y2349D01*
X448Y2349D01*
X448Y2353D01*
X446Y2353D01*
X446Y2357D01*
X444Y2357D01*
X444Y2369D01*
X118Y2369D01*
G37*
D02*
G36*
X512Y2369D02*
X512Y2363D01*
X510Y2363D01*
X510Y2355D01*
X508Y2355D01*
X508Y2349D01*
X506Y2349D01*
X506Y2347D01*
X504Y2347D01*
X504Y2345D01*
X502Y2345D01*
X502Y2341D01*
X498Y2341D01*
X498Y2339D01*
X496Y2339D01*
X496Y2337D01*
X494Y2337D01*
X494Y2335D01*
X574Y2335D01*
X574Y2337D01*
X568Y2337D01*
X568Y2339D01*
X564Y2339D01*
X564Y2341D01*
X562Y2341D01*
X562Y2343D01*
X560Y2343D01*
X560Y2345D01*
X558Y2345D01*
X558Y2347D01*
X556Y2347D01*
X556Y2349D01*
X554Y2349D01*
X554Y2351D01*
X552Y2351D01*
X552Y2355D01*
X550Y2355D01*
X550Y2359D01*
X548Y2359D01*
X548Y2369D01*
X512Y2369D01*
G37*
D02*
G36*
X614Y2369D02*
X614Y2359D01*
X612Y2359D01*
X612Y2355D01*
X610Y2355D01*
X610Y2351D01*
X608Y2351D01*
X608Y2349D01*
X606Y2349D01*
X606Y2347D01*
X604Y2347D01*
X604Y2345D01*
X602Y2345D01*
X602Y2343D01*
X600Y2343D01*
X600Y2341D01*
X598Y2341D01*
X598Y2339D01*
X594Y2339D01*
X594Y2337D01*
X588Y2337D01*
X588Y2335D01*
X968Y2335D01*
X968Y2337D01*
X962Y2337D01*
X962Y2339D01*
X958Y2339D01*
X958Y2341D01*
X956Y2341D01*
X956Y2343D01*
X954Y2343D01*
X954Y2345D01*
X950Y2345D01*
X950Y2349D01*
X948Y2349D01*
X948Y2351D01*
X946Y2351D01*
X946Y2355D01*
X944Y2355D01*
X944Y2359D01*
X942Y2359D01*
X942Y2369D01*
X614Y2369D01*
G37*
D02*
G36*
X1008Y2369D02*
X1008Y2361D01*
X1006Y2361D01*
X1006Y2355D01*
X1004Y2355D01*
X1004Y2351D01*
X1002Y2351D01*
X1002Y2349D01*
X1000Y2349D01*
X1000Y2347D01*
X998Y2347D01*
X998Y2345D01*
X996Y2345D01*
X996Y2343D01*
X994Y2343D01*
X994Y2341D01*
X992Y2341D01*
X992Y2339D01*
X988Y2339D01*
X988Y2337D01*
X982Y2337D01*
X982Y2335D01*
X1226Y2335D01*
X1226Y2369D01*
X1008Y2369D01*
G37*
D02*
G36*
X40Y2343D02*
X40Y2331D01*
X78Y2331D01*
X78Y2333D01*
X72Y2333D01*
X72Y2335D01*
X68Y2335D01*
X68Y2337D01*
X64Y2337D01*
X64Y2339D01*
X62Y2339D01*
X62Y2341D01*
X60Y2341D01*
X60Y2343D01*
X40Y2343D01*
G37*
D02*
G36*
X490Y2335D02*
X490Y2333D01*
X1226Y2333D01*
X1226Y2335D01*
X490Y2335D01*
G37*
D02*
G36*
X490Y2335D02*
X490Y2333D01*
X1226Y2333D01*
X1226Y2335D01*
X490Y2335D01*
G37*
D02*
G36*
X490Y2335D02*
X490Y2333D01*
X1226Y2333D01*
X1226Y2335D01*
X490Y2335D01*
G37*
D02*
G36*
X484Y2333D02*
X484Y2331D01*
X1226Y2331D01*
X1226Y2333D01*
X484Y2333D01*
G37*
D02*
G36*
X40Y2331D02*
X40Y2329D01*
X1226Y2329D01*
X1226Y2331D01*
X40Y2331D01*
G37*
D02*
G36*
X40Y2331D02*
X40Y2329D01*
X1226Y2329D01*
X1226Y2331D01*
X40Y2331D01*
G37*
D02*
G36*
X40Y2331D02*
X40Y2329D01*
X1226Y2329D01*
X1226Y2331D01*
X40Y2331D01*
G37*
D02*
G36*
X40Y2329D02*
X40Y2323D01*
X788Y2323D01*
X788Y2321D01*
X794Y2321D01*
X794Y2319D01*
X798Y2319D01*
X798Y2317D01*
X802Y2317D01*
X802Y2315D01*
X806Y2315D01*
X806Y2313D01*
X808Y2313D01*
X808Y2311D01*
X810Y2311D01*
X810Y2309D01*
X812Y2309D01*
X812Y2307D01*
X814Y2307D01*
X814Y2305D01*
X1196Y2305D01*
X1196Y2303D01*
X1202Y2303D01*
X1202Y2301D01*
X1206Y2301D01*
X1206Y2299D01*
X1226Y2299D01*
X1226Y2329D01*
X40Y2329D01*
G37*
D02*
G36*
X40Y2323D02*
X40Y2319D01*
X292Y2319D01*
X292Y2317D01*
X298Y2317D01*
X298Y2315D01*
X302Y2315D01*
X302Y2313D01*
X306Y2313D01*
X306Y2311D01*
X308Y2311D01*
X308Y2309D01*
X312Y2309D01*
X312Y2307D01*
X314Y2307D01*
X314Y2305D01*
X316Y2305D01*
X316Y2303D01*
X590Y2303D01*
X590Y2301D01*
X596Y2301D01*
X596Y2299D01*
X598Y2299D01*
X598Y2297D01*
X602Y2297D01*
X602Y2295D01*
X604Y2295D01*
X604Y2293D01*
X606Y2293D01*
X606Y2291D01*
X608Y2291D01*
X608Y2287D01*
X610Y2287D01*
X610Y2285D01*
X612Y2285D01*
X612Y2279D01*
X614Y2279D01*
X614Y2261D01*
X612Y2261D01*
X612Y2257D01*
X610Y2257D01*
X610Y2253D01*
X608Y2253D01*
X608Y2251D01*
X606Y2251D01*
X606Y2247D01*
X604Y2247D01*
X604Y2245D01*
X600Y2245D01*
X600Y2243D01*
X598Y2243D01*
X598Y2241D01*
X594Y2241D01*
X594Y2239D01*
X590Y2239D01*
X590Y2237D01*
X738Y2237D01*
X738Y2239D01*
X736Y2239D01*
X736Y2241D01*
X734Y2241D01*
X734Y2245D01*
X732Y2245D01*
X732Y2247D01*
X730Y2247D01*
X730Y2251D01*
X728Y2251D01*
X728Y2257D01*
X726Y2257D01*
X726Y2269D01*
X724Y2269D01*
X724Y2271D01*
X726Y2271D01*
X726Y2283D01*
X728Y2283D01*
X728Y2289D01*
X730Y2289D01*
X730Y2293D01*
X732Y2293D01*
X732Y2295D01*
X734Y2295D01*
X734Y2299D01*
X736Y2299D01*
X736Y2301D01*
X738Y2301D01*
X738Y2303D01*
X740Y2303D01*
X740Y2307D01*
X744Y2307D01*
X744Y2309D01*
X746Y2309D01*
X746Y2311D01*
X748Y2311D01*
X748Y2313D01*
X750Y2313D01*
X750Y2315D01*
X754Y2315D01*
X754Y2317D01*
X758Y2317D01*
X758Y2319D01*
X762Y2319D01*
X762Y2321D01*
X768Y2321D01*
X768Y2323D01*
X40Y2323D01*
G37*
D02*
G36*
X40Y2319D02*
X40Y2299D01*
X94Y2299D01*
X94Y2297D01*
X98Y2297D01*
X98Y2295D01*
X102Y2295D01*
X102Y2293D01*
X104Y2293D01*
X104Y2291D01*
X106Y2291D01*
X106Y2289D01*
X108Y2289D01*
X108Y2287D01*
X110Y2287D01*
X110Y2285D01*
X112Y2285D01*
X112Y2281D01*
X114Y2281D01*
X114Y2279D01*
X116Y2279D01*
X116Y2271D01*
X118Y2271D01*
X118Y2261D01*
X116Y2261D01*
X116Y2255D01*
X114Y2255D01*
X114Y2251D01*
X112Y2251D01*
X112Y2247D01*
X110Y2247D01*
X110Y2245D01*
X108Y2245D01*
X108Y2243D01*
X106Y2243D01*
X106Y2241D01*
X104Y2241D01*
X104Y2239D01*
X100Y2239D01*
X100Y2237D01*
X98Y2237D01*
X98Y2235D01*
X92Y2235D01*
X92Y2233D01*
X240Y2233D01*
X240Y2237D01*
X238Y2237D01*
X238Y2239D01*
X236Y2239D01*
X236Y2243D01*
X234Y2243D01*
X234Y2245D01*
X232Y2245D01*
X232Y2251D01*
X230Y2251D01*
X230Y2257D01*
X228Y2257D01*
X228Y2277D01*
X230Y2277D01*
X230Y2283D01*
X232Y2283D01*
X232Y2287D01*
X234Y2287D01*
X234Y2291D01*
X236Y2291D01*
X236Y2295D01*
X238Y2295D01*
X238Y2297D01*
X240Y2297D01*
X240Y2299D01*
X242Y2299D01*
X242Y2301D01*
X244Y2301D01*
X244Y2303D01*
X246Y2303D01*
X246Y2305D01*
X248Y2305D01*
X248Y2307D01*
X250Y2307D01*
X250Y2309D01*
X252Y2309D01*
X252Y2311D01*
X256Y2311D01*
X256Y2313D01*
X260Y2313D01*
X260Y2315D01*
X264Y2315D01*
X264Y2317D01*
X270Y2317D01*
X270Y2319D01*
X40Y2319D01*
G37*
D02*
G36*
X816Y2305D02*
X816Y2303D01*
X984Y2303D01*
X984Y2301D01*
X988Y2301D01*
X988Y2299D01*
X992Y2299D01*
X992Y2297D01*
X994Y2297D01*
X994Y2295D01*
X998Y2295D01*
X998Y2293D01*
X1000Y2293D01*
X1000Y2289D01*
X1002Y2289D01*
X1002Y2287D01*
X1004Y2287D01*
X1004Y2283D01*
X1006Y2283D01*
X1006Y2279D01*
X1008Y2279D01*
X1008Y2261D01*
X1006Y2261D01*
X1006Y2257D01*
X1004Y2257D01*
X1004Y2253D01*
X1002Y2253D01*
X1002Y2251D01*
X1000Y2251D01*
X1000Y2249D01*
X998Y2249D01*
X998Y2247D01*
X996Y2247D01*
X996Y2245D01*
X994Y2245D01*
X994Y2243D01*
X992Y2243D01*
X992Y2241D01*
X988Y2241D01*
X988Y2239D01*
X984Y2239D01*
X984Y2237D01*
X1050Y2237D01*
X1050Y2239D01*
X1048Y2239D01*
X1048Y2241D01*
X1046Y2241D01*
X1046Y2247D01*
X1044Y2247D01*
X1044Y2251D01*
X1042Y2251D01*
X1042Y2269D01*
X1044Y2269D01*
X1044Y2275D01*
X1046Y2275D01*
X1046Y2279D01*
X1048Y2279D01*
X1048Y2283D01*
X1050Y2283D01*
X1050Y2285D01*
X1052Y2285D01*
X1052Y2287D01*
X1054Y2287D01*
X1054Y2289D01*
X1056Y2289D01*
X1056Y2291D01*
X1058Y2291D01*
X1058Y2293D01*
X1060Y2293D01*
X1060Y2295D01*
X1062Y2295D01*
X1062Y2297D01*
X1064Y2297D01*
X1064Y2299D01*
X1068Y2299D01*
X1068Y2301D01*
X1072Y2301D01*
X1072Y2303D01*
X1078Y2303D01*
X1078Y2305D01*
X816Y2305D01*
G37*
D02*
G36*
X1096Y2305D02*
X1096Y2303D01*
X1102Y2303D01*
X1102Y2301D01*
X1106Y2301D01*
X1106Y2299D01*
X1110Y2299D01*
X1110Y2297D01*
X1112Y2297D01*
X1112Y2295D01*
X1114Y2295D01*
X1114Y2293D01*
X1116Y2293D01*
X1116Y2291D01*
X1118Y2291D01*
X1118Y2289D01*
X1120Y2289D01*
X1120Y2287D01*
X1122Y2287D01*
X1122Y2285D01*
X1124Y2285D01*
X1124Y2281D01*
X1126Y2281D01*
X1126Y2279D01*
X1148Y2279D01*
X1148Y2281D01*
X1150Y2281D01*
X1150Y2285D01*
X1152Y2285D01*
X1152Y2287D01*
X1154Y2287D01*
X1154Y2289D01*
X1156Y2289D01*
X1156Y2291D01*
X1158Y2291D01*
X1158Y2293D01*
X1160Y2293D01*
X1160Y2295D01*
X1162Y2295D01*
X1162Y2297D01*
X1164Y2297D01*
X1164Y2299D01*
X1168Y2299D01*
X1168Y2301D01*
X1172Y2301D01*
X1172Y2303D01*
X1178Y2303D01*
X1178Y2305D01*
X1096Y2305D01*
G37*
D02*
G36*
X318Y2303D02*
X318Y2301D01*
X320Y2301D01*
X320Y2299D01*
X488Y2299D01*
X488Y2297D01*
X492Y2297D01*
X492Y2295D01*
X496Y2295D01*
X496Y2293D01*
X498Y2293D01*
X498Y2291D01*
X500Y2291D01*
X500Y2289D01*
X502Y2289D01*
X502Y2287D01*
X504Y2287D01*
X504Y2285D01*
X506Y2285D01*
X506Y2281D01*
X508Y2281D01*
X508Y2277D01*
X510Y2277D01*
X510Y2269D01*
X512Y2269D01*
X512Y2265D01*
X510Y2265D01*
X510Y2255D01*
X508Y2255D01*
X508Y2251D01*
X506Y2251D01*
X506Y2249D01*
X504Y2249D01*
X504Y2245D01*
X502Y2245D01*
X502Y2243D01*
X500Y2243D01*
X500Y2241D01*
X498Y2241D01*
X498Y2239D01*
X494Y2239D01*
X494Y2237D01*
X572Y2237D01*
X572Y2239D01*
X568Y2239D01*
X568Y2241D01*
X564Y2241D01*
X564Y2243D01*
X562Y2243D01*
X562Y2245D01*
X558Y2245D01*
X558Y2247D01*
X556Y2247D01*
X556Y2251D01*
X554Y2251D01*
X554Y2253D01*
X552Y2253D01*
X552Y2257D01*
X550Y2257D01*
X550Y2261D01*
X548Y2261D01*
X548Y2279D01*
X550Y2279D01*
X550Y2283D01*
X552Y2283D01*
X552Y2287D01*
X554Y2287D01*
X554Y2291D01*
X556Y2291D01*
X556Y2293D01*
X558Y2293D01*
X558Y2295D01*
X560Y2295D01*
X560Y2297D01*
X564Y2297D01*
X564Y2299D01*
X566Y2299D01*
X566Y2301D01*
X572Y2301D01*
X572Y2303D01*
X318Y2303D01*
G37*
D02*
G36*
X818Y2303D02*
X818Y2301D01*
X820Y2301D01*
X820Y2299D01*
X822Y2299D01*
X822Y2295D01*
X824Y2295D01*
X824Y2293D01*
X826Y2293D01*
X826Y2289D01*
X828Y2289D01*
X828Y2283D01*
X830Y2283D01*
X830Y2257D01*
X828Y2257D01*
X828Y2253D01*
X826Y2253D01*
X826Y2249D01*
X824Y2249D01*
X824Y2245D01*
X822Y2245D01*
X822Y2241D01*
X820Y2241D01*
X820Y2239D01*
X818Y2239D01*
X818Y2237D01*
X966Y2237D01*
X966Y2239D01*
X962Y2239D01*
X962Y2241D01*
X958Y2241D01*
X958Y2243D01*
X954Y2243D01*
X954Y2245D01*
X952Y2245D01*
X952Y2247D01*
X950Y2247D01*
X950Y2249D01*
X948Y2249D01*
X948Y2253D01*
X946Y2253D01*
X946Y2255D01*
X944Y2255D01*
X944Y2261D01*
X942Y2261D01*
X942Y2279D01*
X944Y2279D01*
X944Y2285D01*
X946Y2285D01*
X946Y2287D01*
X948Y2287D01*
X948Y2291D01*
X950Y2291D01*
X950Y2293D01*
X952Y2293D01*
X952Y2295D01*
X954Y2295D01*
X954Y2297D01*
X958Y2297D01*
X958Y2299D01*
X960Y2299D01*
X960Y2301D01*
X966Y2301D01*
X966Y2303D01*
X818Y2303D01*
G37*
D02*
G36*
X40Y2299D02*
X40Y2287D01*
X60Y2287D01*
X60Y2289D01*
X62Y2289D01*
X62Y2291D01*
X64Y2291D01*
X64Y2293D01*
X66Y2293D01*
X66Y2295D01*
X70Y2295D01*
X70Y2297D01*
X74Y2297D01*
X74Y2299D01*
X40Y2299D01*
G37*
D02*
G36*
X322Y2299D02*
X322Y2297D01*
X324Y2297D01*
X324Y2293D01*
X326Y2293D01*
X326Y2289D01*
X328Y2289D01*
X328Y2287D01*
X330Y2287D01*
X330Y2281D01*
X332Y2281D01*
X332Y2275D01*
X334Y2275D01*
X334Y2259D01*
X332Y2259D01*
X332Y2251D01*
X330Y2251D01*
X330Y2247D01*
X328Y2247D01*
X328Y2243D01*
X326Y2243D01*
X326Y2239D01*
X324Y2239D01*
X324Y2237D01*
X322Y2237D01*
X322Y2235D01*
X320Y2235D01*
X320Y2233D01*
X470Y2233D01*
X470Y2235D01*
X464Y2235D01*
X464Y2237D01*
X462Y2237D01*
X462Y2239D01*
X458Y2239D01*
X458Y2241D01*
X456Y2241D01*
X456Y2243D01*
X454Y2243D01*
X454Y2245D01*
X452Y2245D01*
X452Y2247D01*
X450Y2247D01*
X450Y2251D01*
X448Y2251D01*
X448Y2253D01*
X446Y2253D01*
X446Y2259D01*
X444Y2259D01*
X444Y2273D01*
X446Y2273D01*
X446Y2279D01*
X448Y2279D01*
X448Y2283D01*
X450Y2283D01*
X450Y2285D01*
X452Y2285D01*
X452Y2289D01*
X454Y2289D01*
X454Y2291D01*
X458Y2291D01*
X458Y2293D01*
X460Y2293D01*
X460Y2295D01*
X462Y2295D01*
X462Y2297D01*
X468Y2297D01*
X468Y2299D01*
X322Y2299D01*
G37*
D02*
G36*
X40Y2245D02*
X40Y2233D01*
X76Y2233D01*
X76Y2235D01*
X70Y2235D01*
X70Y2237D01*
X68Y2237D01*
X68Y2239D01*
X64Y2239D01*
X64Y2241D01*
X62Y2241D01*
X62Y2243D01*
X60Y2243D01*
X60Y2245D01*
X40Y2245D01*
G37*
D02*
G36*
X1126Y2243D02*
X1126Y2239D01*
X1124Y2239D01*
X1124Y2235D01*
X1122Y2235D01*
X1122Y2233D01*
X1120Y2233D01*
X1120Y2231D01*
X1118Y2231D01*
X1118Y2229D01*
X1116Y2229D01*
X1116Y2227D01*
X1114Y2227D01*
X1114Y2225D01*
X1110Y2225D01*
X1110Y2223D01*
X1108Y2223D01*
X1108Y2221D01*
X1104Y2221D01*
X1104Y2219D01*
X1100Y2219D01*
X1100Y2217D01*
X1092Y2217D01*
X1092Y2215D01*
X1182Y2215D01*
X1182Y2217D01*
X1174Y2217D01*
X1174Y2219D01*
X1170Y2219D01*
X1170Y2221D01*
X1166Y2221D01*
X1166Y2223D01*
X1162Y2223D01*
X1162Y2225D01*
X1160Y2225D01*
X1160Y2227D01*
X1158Y2227D01*
X1158Y2229D01*
X1156Y2229D01*
X1156Y2231D01*
X1154Y2231D01*
X1154Y2233D01*
X1152Y2233D01*
X1152Y2235D01*
X1150Y2235D01*
X1150Y2239D01*
X1148Y2239D01*
X1148Y2243D01*
X1126Y2243D01*
G37*
D02*
G36*
X490Y2237D02*
X490Y2235D01*
X740Y2235D01*
X740Y2237D01*
X490Y2237D01*
G37*
D02*
G36*
X490Y2237D02*
X490Y2235D01*
X740Y2235D01*
X740Y2237D01*
X490Y2237D01*
G37*
D02*
G36*
X816Y2237D02*
X816Y2235D01*
X1050Y2235D01*
X1050Y2237D01*
X816Y2237D01*
G37*
D02*
G36*
X816Y2237D02*
X816Y2235D01*
X1050Y2235D01*
X1050Y2237D01*
X816Y2237D01*
G37*
D02*
G36*
X486Y2235D02*
X486Y2233D01*
X742Y2233D01*
X742Y2235D01*
X486Y2235D01*
G37*
D02*
G36*
X814Y2235D02*
X814Y2233D01*
X812Y2233D01*
X812Y2231D01*
X810Y2231D01*
X810Y2229D01*
X808Y2229D01*
X808Y2227D01*
X804Y2227D01*
X804Y2225D01*
X802Y2225D01*
X802Y2223D01*
X798Y2223D01*
X798Y2221D01*
X794Y2221D01*
X794Y2219D01*
X790Y2219D01*
X790Y2215D01*
X1080Y2215D01*
X1080Y2217D01*
X1074Y2217D01*
X1074Y2219D01*
X1070Y2219D01*
X1070Y2221D01*
X1066Y2221D01*
X1066Y2223D01*
X1062Y2223D01*
X1062Y2225D01*
X1060Y2225D01*
X1060Y2227D01*
X1058Y2227D01*
X1058Y2229D01*
X1056Y2229D01*
X1056Y2231D01*
X1054Y2231D01*
X1054Y2233D01*
X1052Y2233D01*
X1052Y2235D01*
X814Y2235D01*
G37*
D02*
G36*
X40Y2233D02*
X40Y2231D01*
X242Y2231D01*
X242Y2233D01*
X40Y2233D01*
G37*
D02*
G36*
X40Y2233D02*
X40Y2231D01*
X242Y2231D01*
X242Y2233D01*
X40Y2233D01*
G37*
D02*
G36*
X320Y2233D02*
X320Y2231D01*
X744Y2231D01*
X744Y2233D01*
X320Y2233D01*
G37*
D02*
G36*
X320Y2233D02*
X320Y2231D01*
X744Y2231D01*
X744Y2233D01*
X320Y2233D01*
G37*
D02*
G36*
X40Y2231D02*
X40Y2213D01*
X274Y2213D01*
X274Y2215D01*
X266Y2215D01*
X266Y2217D01*
X262Y2217D01*
X262Y2219D01*
X258Y2219D01*
X258Y2221D01*
X254Y2221D01*
X254Y2223D01*
X252Y2223D01*
X252Y2225D01*
X248Y2225D01*
X248Y2227D01*
X246Y2227D01*
X246Y2229D01*
X244Y2229D01*
X244Y2231D01*
X40Y2231D01*
G37*
D02*
G36*
X318Y2231D02*
X318Y2229D01*
X316Y2229D01*
X316Y2227D01*
X312Y2227D01*
X312Y2225D01*
X310Y2225D01*
X310Y2223D01*
X308Y2223D01*
X308Y2221D01*
X304Y2221D01*
X304Y2219D01*
X300Y2219D01*
X300Y2217D01*
X296Y2217D01*
X296Y2215D01*
X288Y2215D01*
X288Y2213D01*
X744Y2213D01*
X744Y2231D01*
X318Y2231D01*
G37*
D02*
G36*
X1204Y2221D02*
X1204Y2219D01*
X1200Y2219D01*
X1200Y2217D01*
X1194Y2217D01*
X1194Y2215D01*
X1226Y2215D01*
X1226Y2221D01*
X1204Y2221D01*
G37*
D02*
G36*
X790Y2215D02*
X790Y2213D01*
X1226Y2213D01*
X1226Y2215D01*
X790Y2215D01*
G37*
D02*
G36*
X790Y2215D02*
X790Y2213D01*
X1226Y2213D01*
X1226Y2215D01*
X790Y2215D01*
G37*
D02*
G36*
X790Y2215D02*
X790Y2213D01*
X1226Y2213D01*
X1226Y2215D01*
X790Y2215D01*
G37*
D02*
G36*
X40Y2213D02*
X40Y2211D01*
X744Y2211D01*
X744Y2213D01*
X40Y2213D01*
G37*
D02*
G36*
X40Y2213D02*
X40Y2211D01*
X744Y2211D01*
X744Y2213D01*
X40Y2213D01*
G37*
D02*
G36*
X788Y2213D02*
X788Y2203D01*
X786Y2203D01*
X786Y2193D01*
X784Y2193D01*
X784Y2183D01*
X782Y2183D01*
X782Y2173D01*
X780Y2173D01*
X780Y2163D01*
X778Y2163D01*
X778Y2153D01*
X776Y2153D01*
X776Y2143D01*
X774Y2143D01*
X774Y2133D01*
X772Y2133D01*
X772Y2127D01*
X980Y2127D01*
X980Y2125D01*
X988Y2125D01*
X988Y2123D01*
X994Y2123D01*
X994Y2121D01*
X998Y2121D01*
X998Y2119D01*
X1000Y2119D01*
X1000Y2117D01*
X1004Y2117D01*
X1004Y2115D01*
X1006Y2115D01*
X1006Y2113D01*
X1008Y2113D01*
X1008Y2111D01*
X1010Y2111D01*
X1010Y2109D01*
X1012Y2109D01*
X1012Y2107D01*
X1014Y2107D01*
X1014Y2105D01*
X1016Y2105D01*
X1016Y2103D01*
X1018Y2103D01*
X1018Y2101D01*
X1020Y2101D01*
X1020Y2097D01*
X1022Y2097D01*
X1022Y2093D01*
X1024Y2093D01*
X1024Y2089D01*
X1026Y2089D01*
X1026Y2081D01*
X1028Y2081D01*
X1028Y2065D01*
X1026Y2065D01*
X1026Y2059D01*
X1024Y2059D01*
X1024Y2053D01*
X1022Y2053D01*
X1022Y2049D01*
X1020Y2049D01*
X1020Y2047D01*
X1018Y2047D01*
X1018Y2043D01*
X1016Y2043D01*
X1016Y2041D01*
X1014Y2041D01*
X1014Y2039D01*
X1012Y2039D01*
X1012Y2037D01*
X1010Y2037D01*
X1010Y2035D01*
X1008Y2035D01*
X1008Y2033D01*
X1006Y2033D01*
X1006Y2031D01*
X1004Y2031D01*
X1004Y2029D01*
X1000Y2029D01*
X1000Y2027D01*
X996Y2027D01*
X996Y2025D01*
X992Y2025D01*
X992Y2023D01*
X986Y2023D01*
X986Y2021D01*
X1226Y2021D01*
X1226Y2213D01*
X788Y2213D01*
G37*
D02*
G36*
X40Y2211D02*
X40Y2127D01*
X684Y2127D01*
X684Y2125D01*
X694Y2125D01*
X694Y2123D01*
X698Y2123D01*
X698Y2121D01*
X702Y2121D01*
X702Y2119D01*
X706Y2119D01*
X706Y2117D01*
X726Y2117D01*
X726Y2127D01*
X728Y2127D01*
X728Y2137D01*
X730Y2137D01*
X730Y2147D01*
X732Y2147D01*
X732Y2157D01*
X734Y2157D01*
X734Y2167D01*
X736Y2167D01*
X736Y2177D01*
X738Y2177D01*
X738Y2187D01*
X740Y2187D01*
X740Y2197D01*
X742Y2197D01*
X742Y2207D01*
X744Y2207D01*
X744Y2211D01*
X40Y2211D01*
G37*
D02*
G36*
X40Y2127D02*
X40Y2123D01*
X484Y2123D01*
X484Y2121D01*
X492Y2121D01*
X492Y2119D01*
X498Y2119D01*
X498Y2117D01*
X500Y2117D01*
X500Y2115D01*
X504Y2115D01*
X504Y2113D01*
X508Y2113D01*
X508Y2111D01*
X510Y2111D01*
X510Y2109D01*
X512Y2109D01*
X512Y2107D01*
X514Y2107D01*
X514Y2105D01*
X516Y2105D01*
X516Y2103D01*
X518Y2103D01*
X518Y2101D01*
X538Y2101D01*
X538Y2103D01*
X540Y2103D01*
X540Y2105D01*
X542Y2105D01*
X542Y2107D01*
X544Y2107D01*
X544Y2111D01*
X548Y2111D01*
X548Y2113D01*
X550Y2113D01*
X550Y2115D01*
X552Y2115D01*
X552Y2117D01*
X556Y2117D01*
X556Y2119D01*
X558Y2119D01*
X558Y2121D01*
X562Y2121D01*
X562Y2123D01*
X568Y2123D01*
X568Y2125D01*
X576Y2125D01*
X576Y2127D01*
X40Y2127D01*
G37*
D02*
G36*
X586Y2127D02*
X586Y2125D01*
X594Y2125D01*
X594Y2123D01*
X600Y2123D01*
X600Y2121D01*
X604Y2121D01*
X604Y2119D01*
X608Y2119D01*
X608Y2117D01*
X610Y2117D01*
X610Y2115D01*
X612Y2115D01*
X612Y2113D01*
X614Y2113D01*
X614Y2111D01*
X618Y2111D01*
X618Y2109D01*
X620Y2109D01*
X620Y2105D01*
X640Y2105D01*
X640Y2107D01*
X642Y2107D01*
X642Y2109D01*
X644Y2109D01*
X644Y2111D01*
X646Y2111D01*
X646Y2113D01*
X648Y2113D01*
X648Y2115D01*
X650Y2115D01*
X650Y2117D01*
X654Y2117D01*
X654Y2119D01*
X656Y2119D01*
X656Y2121D01*
X660Y2121D01*
X660Y2123D01*
X666Y2123D01*
X666Y2125D01*
X674Y2125D01*
X674Y2127D01*
X586Y2127D01*
G37*
D02*
G36*
X772Y2127D02*
X772Y2107D01*
X784Y2107D01*
X784Y2105D01*
X790Y2105D01*
X790Y2103D01*
X794Y2103D01*
X794Y2101D01*
X798Y2101D01*
X798Y2099D01*
X800Y2099D01*
X800Y2097D01*
X802Y2097D01*
X802Y2095D01*
X804Y2095D01*
X804Y2091D01*
X806Y2091D01*
X806Y2089D01*
X826Y2089D01*
X826Y2091D01*
X828Y2091D01*
X828Y2095D01*
X830Y2095D01*
X830Y2099D01*
X832Y2099D01*
X832Y2101D01*
X834Y2101D01*
X834Y2105D01*
X836Y2105D01*
X836Y2107D01*
X838Y2107D01*
X838Y2109D01*
X840Y2109D01*
X840Y2111D01*
X842Y2111D01*
X842Y2113D01*
X844Y2113D01*
X844Y2115D01*
X848Y2115D01*
X848Y2117D01*
X850Y2117D01*
X850Y2119D01*
X854Y2119D01*
X854Y2121D01*
X858Y2121D01*
X858Y2123D01*
X862Y2123D01*
X862Y2125D01*
X872Y2125D01*
X872Y2127D01*
X772Y2127D01*
G37*
D02*
G36*
X880Y2127D02*
X880Y2125D01*
X890Y2125D01*
X890Y2123D01*
X896Y2123D01*
X896Y2121D01*
X898Y2121D01*
X898Y2119D01*
X902Y2119D01*
X902Y2117D01*
X906Y2117D01*
X906Y2115D01*
X908Y2115D01*
X908Y2113D01*
X910Y2113D01*
X910Y2111D01*
X912Y2111D01*
X912Y2109D01*
X914Y2109D01*
X914Y2107D01*
X916Y2107D01*
X916Y2105D01*
X936Y2105D01*
X936Y2109D01*
X938Y2109D01*
X938Y2111D01*
X940Y2111D01*
X940Y2113D01*
X944Y2113D01*
X944Y2115D01*
X946Y2115D01*
X946Y2117D01*
X948Y2117D01*
X948Y2119D01*
X952Y2119D01*
X952Y2121D01*
X956Y2121D01*
X956Y2123D01*
X962Y2123D01*
X962Y2125D01*
X970Y2125D01*
X970Y2127D01*
X880Y2127D01*
G37*
D02*
G36*
X40Y2123D02*
X40Y2115D01*
X60Y2115D01*
X60Y2117D01*
X64Y2117D01*
X64Y2119D01*
X70Y2119D01*
X70Y2121D01*
X78Y2121D01*
X78Y2123D01*
X40Y2123D01*
G37*
D02*
G36*
X90Y2123D02*
X90Y2121D01*
X98Y2121D01*
X98Y2119D01*
X104Y2119D01*
X104Y2117D01*
X106Y2117D01*
X106Y2115D01*
X110Y2115D01*
X110Y2113D01*
X114Y2113D01*
X114Y2111D01*
X116Y2111D01*
X116Y2109D01*
X118Y2109D01*
X118Y2107D01*
X120Y2107D01*
X120Y2105D01*
X122Y2105D01*
X122Y2103D01*
X144Y2103D01*
X144Y2105D01*
X146Y2105D01*
X146Y2107D01*
X148Y2107D01*
X148Y2109D01*
X150Y2109D01*
X150Y2111D01*
X152Y2111D01*
X152Y2113D01*
X156Y2113D01*
X156Y2115D01*
X160Y2115D01*
X160Y2117D01*
X162Y2117D01*
X162Y2119D01*
X168Y2119D01*
X168Y2121D01*
X176Y2121D01*
X176Y2123D01*
X90Y2123D01*
G37*
D02*
G36*
X188Y2123D02*
X188Y2121D01*
X198Y2121D01*
X198Y2119D01*
X202Y2119D01*
X202Y2117D01*
X206Y2117D01*
X206Y2115D01*
X208Y2115D01*
X208Y2113D01*
X212Y2113D01*
X212Y2111D01*
X214Y2111D01*
X214Y2109D01*
X216Y2109D01*
X216Y2107D01*
X218Y2107D01*
X218Y2105D01*
X220Y2105D01*
X220Y2103D01*
X288Y2103D01*
X288Y2101D01*
X294Y2101D01*
X294Y2099D01*
X298Y2099D01*
X298Y2097D01*
X300Y2097D01*
X300Y2095D01*
X302Y2095D01*
X302Y2093D01*
X304Y2093D01*
X304Y2091D01*
X306Y2091D01*
X306Y2089D01*
X308Y2089D01*
X308Y2087D01*
X310Y2087D01*
X310Y2085D01*
X330Y2085D01*
X330Y2089D01*
X332Y2089D01*
X332Y2093D01*
X334Y2093D01*
X334Y2097D01*
X336Y2097D01*
X336Y2099D01*
X338Y2099D01*
X338Y2101D01*
X340Y2101D01*
X340Y2105D01*
X342Y2105D01*
X342Y2107D01*
X344Y2107D01*
X344Y2109D01*
X348Y2109D01*
X348Y2111D01*
X350Y2111D01*
X350Y2113D01*
X352Y2113D01*
X352Y2115D01*
X356Y2115D01*
X356Y2117D01*
X360Y2117D01*
X360Y2119D01*
X364Y2119D01*
X364Y2121D01*
X372Y2121D01*
X372Y2123D01*
X188Y2123D01*
G37*
D02*
G36*
X386Y2123D02*
X386Y2121D01*
X394Y2121D01*
X394Y2119D01*
X398Y2119D01*
X398Y2117D01*
X402Y2117D01*
X402Y2115D01*
X406Y2115D01*
X406Y2113D01*
X408Y2113D01*
X408Y2111D01*
X412Y2111D01*
X412Y2109D01*
X414Y2109D01*
X414Y2107D01*
X416Y2107D01*
X416Y2105D01*
X418Y2105D01*
X418Y2103D01*
X440Y2103D01*
X440Y2105D01*
X442Y2105D01*
X442Y2107D01*
X444Y2107D01*
X444Y2109D01*
X446Y2109D01*
X446Y2111D01*
X448Y2111D01*
X448Y2113D01*
X452Y2113D01*
X452Y2115D01*
X454Y2115D01*
X454Y2117D01*
X458Y2117D01*
X458Y2119D01*
X462Y2119D01*
X462Y2121D01*
X472Y2121D01*
X472Y2123D01*
X386Y2123D01*
G37*
D02*
G36*
X222Y2103D02*
X222Y2101D01*
X224Y2101D01*
X224Y2099D01*
X226Y2099D01*
X226Y2095D01*
X228Y2095D01*
X228Y2093D01*
X230Y2093D01*
X230Y2089D01*
X232Y2089D01*
X232Y2083D01*
X252Y2083D01*
X252Y2087D01*
X254Y2087D01*
X254Y2089D01*
X256Y2089D01*
X256Y2093D01*
X258Y2093D01*
X258Y2095D01*
X262Y2095D01*
X262Y2097D01*
X264Y2097D01*
X264Y2099D01*
X268Y2099D01*
X268Y2101D01*
X274Y2101D01*
X274Y2103D01*
X222Y2103D01*
G37*
D02*
G36*
X806Y2057D02*
X806Y2055D01*
X804Y2055D01*
X804Y2053D01*
X802Y2053D01*
X802Y2049D01*
X798Y2049D01*
X798Y2047D01*
X796Y2047D01*
X796Y2045D01*
X794Y2045D01*
X794Y2043D01*
X790Y2043D01*
X790Y2041D01*
X782Y2041D01*
X782Y2039D01*
X838Y2039D01*
X838Y2041D01*
X836Y2041D01*
X836Y2043D01*
X834Y2043D01*
X834Y2045D01*
X832Y2045D01*
X832Y2049D01*
X830Y2049D01*
X830Y2051D01*
X828Y2051D01*
X828Y2055D01*
X826Y2055D01*
X826Y2057D01*
X806Y2057D01*
G37*
D02*
G36*
X520Y2041D02*
X520Y2039D01*
X518Y2039D01*
X518Y2037D01*
X516Y2037D01*
X516Y2035D01*
X514Y2035D01*
X514Y2033D01*
X512Y2033D01*
X512Y2031D01*
X510Y2031D01*
X510Y2029D01*
X508Y2029D01*
X508Y2027D01*
X506Y2027D01*
X506Y2025D01*
X502Y2025D01*
X502Y2023D01*
X498Y2023D01*
X498Y2021D01*
X570Y2021D01*
X570Y2023D01*
X564Y2023D01*
X564Y2025D01*
X560Y2025D01*
X560Y2027D01*
X556Y2027D01*
X556Y2029D01*
X552Y2029D01*
X552Y2031D01*
X550Y2031D01*
X550Y2033D01*
X548Y2033D01*
X548Y2035D01*
X546Y2035D01*
X546Y2037D01*
X544Y2037D01*
X544Y2039D01*
X542Y2039D01*
X542Y2041D01*
X520Y2041D01*
G37*
D02*
G36*
X620Y2041D02*
X620Y2039D01*
X618Y2039D01*
X618Y2037D01*
X616Y2037D01*
X616Y2035D01*
X614Y2035D01*
X614Y2033D01*
X612Y2033D01*
X612Y2031D01*
X610Y2031D01*
X610Y2029D01*
X606Y2029D01*
X606Y2027D01*
X602Y2027D01*
X602Y2025D01*
X598Y2025D01*
X598Y2023D01*
X592Y2023D01*
X592Y2021D01*
X668Y2021D01*
X668Y2023D01*
X662Y2023D01*
X662Y2025D01*
X658Y2025D01*
X658Y2027D01*
X654Y2027D01*
X654Y2029D01*
X652Y2029D01*
X652Y2031D01*
X648Y2031D01*
X648Y2033D01*
X646Y2033D01*
X646Y2035D01*
X644Y2035D01*
X644Y2037D01*
X642Y2037D01*
X642Y2039D01*
X640Y2039D01*
X640Y2041D01*
X620Y2041D01*
G37*
D02*
G36*
X754Y2041D02*
X754Y2039D01*
X774Y2039D01*
X774Y2041D01*
X754Y2041D01*
G37*
D02*
G36*
X916Y2041D02*
X916Y2039D01*
X914Y2039D01*
X914Y2037D01*
X912Y2037D01*
X912Y2035D01*
X910Y2035D01*
X910Y2033D01*
X908Y2033D01*
X908Y2031D01*
X904Y2031D01*
X904Y2029D01*
X902Y2029D01*
X902Y2027D01*
X898Y2027D01*
X898Y2025D01*
X894Y2025D01*
X894Y2023D01*
X888Y2023D01*
X888Y2021D01*
X962Y2021D01*
X962Y2023D01*
X958Y2023D01*
X958Y2025D01*
X954Y2025D01*
X954Y2027D01*
X950Y2027D01*
X950Y2029D01*
X946Y2029D01*
X946Y2031D01*
X944Y2031D01*
X944Y2033D01*
X942Y2033D01*
X942Y2035D01*
X940Y2035D01*
X940Y2037D01*
X938Y2037D01*
X938Y2039D01*
X936Y2039D01*
X936Y2041D01*
X916Y2041D01*
G37*
D02*
G36*
X754Y2039D02*
X754Y2037D01*
X838Y2037D01*
X838Y2039D01*
X754Y2039D01*
G37*
D02*
G36*
X754Y2039D02*
X754Y2037D01*
X838Y2037D01*
X838Y2039D01*
X754Y2039D01*
G37*
D02*
G36*
X754Y2037D02*
X754Y2033D01*
X752Y2033D01*
X752Y2023D01*
X750Y2023D01*
X750Y2021D01*
X864Y2021D01*
X864Y2023D01*
X858Y2023D01*
X858Y2025D01*
X854Y2025D01*
X854Y2027D01*
X852Y2027D01*
X852Y2029D01*
X848Y2029D01*
X848Y2031D01*
X846Y2031D01*
X846Y2033D01*
X844Y2033D01*
X844Y2035D01*
X840Y2035D01*
X840Y2037D01*
X754Y2037D01*
G37*
D02*
G36*
X494Y2021D02*
X494Y2019D01*
X680Y2019D01*
X680Y2021D01*
X494Y2021D01*
G37*
D02*
G36*
X494Y2021D02*
X494Y2019D01*
X680Y2019D01*
X680Y2021D01*
X494Y2021D01*
G37*
D02*
G36*
X750Y2021D02*
X750Y2019D01*
X1226Y2019D01*
X1226Y2021D01*
X750Y2021D01*
G37*
D02*
G36*
X750Y2021D02*
X750Y2019D01*
X1226Y2019D01*
X1226Y2021D01*
X750Y2021D01*
G37*
D02*
G36*
X750Y2021D02*
X750Y2019D01*
X1226Y2019D01*
X1226Y2021D01*
X750Y2021D01*
G37*
D02*
G36*
X488Y2019D02*
X488Y2017D01*
X462Y2017D01*
X462Y2015D01*
X460Y2015D01*
X460Y2013D01*
X458Y2013D01*
X458Y2011D01*
X456Y2011D01*
X456Y2007D01*
X454Y2007D01*
X454Y2005D01*
X452Y2005D01*
X452Y2003D01*
X450Y2003D01*
X450Y2001D01*
X448Y2001D01*
X448Y1999D01*
X446Y1999D01*
X446Y1995D01*
X444Y1995D01*
X444Y1993D01*
X442Y1993D01*
X442Y1991D01*
X440Y1991D01*
X440Y1989D01*
X438Y1989D01*
X438Y1987D01*
X436Y1987D01*
X436Y1983D01*
X434Y1983D01*
X434Y1981D01*
X432Y1981D01*
X432Y1979D01*
X430Y1979D01*
X430Y1977D01*
X428Y1977D01*
X428Y1975D01*
X426Y1975D01*
X426Y1973D01*
X424Y1973D01*
X424Y1971D01*
X422Y1971D01*
X422Y1969D01*
X418Y1969D01*
X418Y1967D01*
X410Y1967D01*
X410Y1965D01*
X168Y1965D01*
X168Y1963D01*
X166Y1963D01*
X166Y1961D01*
X164Y1961D01*
X164Y1959D01*
X160Y1959D01*
X160Y1957D01*
X158Y1957D01*
X158Y1955D01*
X156Y1955D01*
X156Y1953D01*
X154Y1953D01*
X154Y1951D01*
X150Y1951D01*
X150Y1949D01*
X148Y1949D01*
X148Y1947D01*
X146Y1947D01*
X146Y1945D01*
X144Y1945D01*
X144Y1943D01*
X142Y1943D01*
X142Y1941D01*
X138Y1941D01*
X138Y1939D01*
X136Y1939D01*
X136Y1937D01*
X134Y1937D01*
X134Y1935D01*
X132Y1935D01*
X132Y1933D01*
X128Y1933D01*
X128Y1931D01*
X126Y1931D01*
X126Y1929D01*
X124Y1929D01*
X124Y1927D01*
X122Y1927D01*
X122Y1925D01*
X118Y1925D01*
X118Y1923D01*
X116Y1923D01*
X116Y1921D01*
X114Y1921D01*
X114Y1919D01*
X112Y1919D01*
X112Y1917D01*
X108Y1917D01*
X108Y1915D01*
X106Y1915D01*
X106Y1913D01*
X104Y1913D01*
X104Y1905D01*
X488Y1905D01*
X488Y1903D01*
X512Y1903D01*
X512Y1905D01*
X516Y1905D01*
X516Y1907D01*
X520Y1907D01*
X520Y1909D01*
X522Y1909D01*
X522Y1911D01*
X526Y1911D01*
X526Y1913D01*
X530Y1913D01*
X530Y1915D01*
X532Y1915D01*
X532Y1917D01*
X536Y1917D01*
X536Y1919D01*
X540Y1919D01*
X540Y1921D01*
X544Y1921D01*
X544Y1923D01*
X546Y1923D01*
X546Y1925D01*
X550Y1925D01*
X550Y1927D01*
X554Y1927D01*
X554Y1929D01*
X556Y1929D01*
X556Y1931D01*
X560Y1931D01*
X560Y1933D01*
X564Y1933D01*
X564Y1935D01*
X568Y1935D01*
X568Y1937D01*
X570Y1937D01*
X570Y1939D01*
X574Y1939D01*
X574Y1941D01*
X578Y1941D01*
X578Y1943D01*
X580Y1943D01*
X580Y1945D01*
X584Y1945D01*
X584Y1947D01*
X588Y1947D01*
X588Y1949D01*
X592Y1949D01*
X592Y1951D01*
X594Y1951D01*
X594Y1953D01*
X598Y1953D01*
X598Y1955D01*
X602Y1955D01*
X602Y1957D01*
X604Y1957D01*
X604Y1959D01*
X608Y1959D01*
X608Y1961D01*
X612Y1961D01*
X612Y1963D01*
X614Y1963D01*
X614Y1965D01*
X618Y1965D01*
X618Y1967D01*
X622Y1967D01*
X622Y1969D01*
X626Y1969D01*
X626Y1971D01*
X628Y1971D01*
X628Y1973D01*
X632Y1973D01*
X632Y1975D01*
X636Y1975D01*
X636Y1977D01*
X638Y1977D01*
X638Y1979D01*
X642Y1979D01*
X642Y1981D01*
X646Y1981D01*
X646Y1983D01*
X650Y1983D01*
X650Y1985D01*
X652Y1985D01*
X652Y1987D01*
X656Y1987D01*
X656Y1989D01*
X660Y1989D01*
X660Y1991D01*
X662Y1991D01*
X662Y1993D01*
X666Y1993D01*
X666Y1995D01*
X670Y1995D01*
X670Y1997D01*
X674Y1997D01*
X674Y1999D01*
X676Y1999D01*
X676Y2001D01*
X680Y2001D01*
X680Y2019D01*
X488Y2019D01*
G37*
D02*
G36*
X750Y2019D02*
X750Y2013D01*
X748Y2013D01*
X748Y2003D01*
X746Y2003D01*
X746Y1995D01*
X744Y1995D01*
X744Y1991D01*
X742Y1991D01*
X742Y1989D01*
X740Y1989D01*
X740Y1987D01*
X738Y1987D01*
X738Y1985D01*
X736Y1985D01*
X736Y1983D01*
X732Y1983D01*
X732Y1981D01*
X730Y1981D01*
X730Y1979D01*
X726Y1979D01*
X726Y1977D01*
X722Y1977D01*
X722Y1975D01*
X720Y1975D01*
X720Y1973D01*
X716Y1973D01*
X716Y1971D01*
X712Y1971D01*
X712Y1969D01*
X708Y1969D01*
X708Y1967D01*
X706Y1967D01*
X706Y1965D01*
X702Y1965D01*
X702Y1963D01*
X698Y1963D01*
X698Y1961D01*
X696Y1961D01*
X696Y1959D01*
X692Y1959D01*
X692Y1957D01*
X688Y1957D01*
X688Y1955D01*
X684Y1955D01*
X684Y1953D01*
X682Y1953D01*
X682Y1951D01*
X678Y1951D01*
X678Y1949D01*
X674Y1949D01*
X674Y1947D01*
X672Y1947D01*
X672Y1945D01*
X668Y1945D01*
X668Y1943D01*
X664Y1943D01*
X664Y1941D01*
X662Y1941D01*
X662Y1939D01*
X658Y1939D01*
X658Y1937D01*
X654Y1937D01*
X654Y1935D01*
X650Y1935D01*
X650Y1933D01*
X648Y1933D01*
X648Y1931D01*
X644Y1931D01*
X644Y1929D01*
X640Y1929D01*
X640Y1927D01*
X638Y1927D01*
X638Y1925D01*
X634Y1925D01*
X634Y1923D01*
X630Y1923D01*
X630Y1921D01*
X626Y1921D01*
X626Y1919D01*
X624Y1919D01*
X624Y1917D01*
X620Y1917D01*
X620Y1915D01*
X812Y1915D01*
X812Y1913D01*
X820Y1913D01*
X820Y1911D01*
X824Y1911D01*
X824Y1909D01*
X828Y1909D01*
X828Y1907D01*
X832Y1907D01*
X832Y1905D01*
X834Y1905D01*
X834Y1903D01*
X836Y1903D01*
X836Y1901D01*
X838Y1901D01*
X838Y1899D01*
X840Y1899D01*
X840Y1897D01*
X842Y1897D01*
X842Y1895D01*
X844Y1895D01*
X844Y1893D01*
X846Y1893D01*
X846Y1889D01*
X848Y1889D01*
X848Y1885D01*
X850Y1885D01*
X850Y1881D01*
X852Y1881D01*
X852Y1875D01*
X854Y1875D01*
X854Y1859D01*
X852Y1859D01*
X852Y1853D01*
X850Y1853D01*
X850Y1849D01*
X848Y1849D01*
X848Y1845D01*
X846Y1845D01*
X846Y1841D01*
X844Y1841D01*
X844Y1839D01*
X842Y1839D01*
X842Y1837D01*
X840Y1837D01*
X840Y1835D01*
X838Y1835D01*
X838Y1833D01*
X836Y1833D01*
X836Y1831D01*
X834Y1831D01*
X834Y1829D01*
X832Y1829D01*
X832Y1827D01*
X828Y1827D01*
X828Y1825D01*
X824Y1825D01*
X824Y1823D01*
X820Y1823D01*
X820Y1821D01*
X812Y1821D01*
X812Y1819D01*
X1172Y1819D01*
X1172Y1837D01*
X1170Y1837D01*
X1170Y1841D01*
X1168Y1841D01*
X1168Y1843D01*
X1166Y1843D01*
X1166Y1847D01*
X1164Y1847D01*
X1164Y1849D01*
X1162Y1849D01*
X1162Y1855D01*
X1160Y1855D01*
X1160Y1863D01*
X1158Y1863D01*
X1158Y1871D01*
X1160Y1871D01*
X1160Y1879D01*
X1162Y1879D01*
X1162Y1885D01*
X1164Y1885D01*
X1164Y1887D01*
X1166Y1887D01*
X1166Y1891D01*
X1168Y1891D01*
X1168Y1893D01*
X1170Y1893D01*
X1170Y1897D01*
X1172Y1897D01*
X1172Y1899D01*
X1174Y1899D01*
X1174Y1901D01*
X1176Y1901D01*
X1176Y1903D01*
X1180Y1903D01*
X1180Y1905D01*
X1182Y1905D01*
X1182Y1907D01*
X1184Y1907D01*
X1184Y1909D01*
X1188Y1909D01*
X1188Y1911D01*
X1194Y1911D01*
X1194Y1913D01*
X1200Y1913D01*
X1200Y1915D01*
X1226Y1915D01*
X1226Y2019D01*
X750Y2019D01*
G37*
D02*
G36*
X616Y1915D02*
X616Y1913D01*
X614Y1913D01*
X614Y1911D01*
X610Y1911D01*
X610Y1909D01*
X606Y1909D01*
X606Y1907D01*
X602Y1907D01*
X602Y1905D01*
X600Y1905D01*
X600Y1903D01*
X596Y1903D01*
X596Y1901D01*
X592Y1901D01*
X592Y1899D01*
X590Y1899D01*
X590Y1897D01*
X586Y1897D01*
X586Y1895D01*
X582Y1895D01*
X582Y1893D01*
X580Y1893D01*
X580Y1891D01*
X576Y1891D01*
X576Y1889D01*
X572Y1889D01*
X572Y1887D01*
X568Y1887D01*
X568Y1885D01*
X566Y1885D01*
X566Y1883D01*
X562Y1883D01*
X562Y1881D01*
X558Y1881D01*
X558Y1879D01*
X556Y1879D01*
X556Y1877D01*
X552Y1877D01*
X552Y1875D01*
X548Y1875D01*
X548Y1873D01*
X544Y1873D01*
X544Y1871D01*
X542Y1871D01*
X542Y1869D01*
X538Y1869D01*
X538Y1867D01*
X534Y1867D01*
X534Y1865D01*
X532Y1865D01*
X532Y1863D01*
X528Y1863D01*
X528Y1861D01*
X526Y1861D01*
X526Y1853D01*
X524Y1853D01*
X524Y1847D01*
X522Y1847D01*
X522Y1841D01*
X520Y1841D01*
X520Y1837D01*
X518Y1837D01*
X518Y1835D01*
X516Y1835D01*
X516Y1831D01*
X514Y1831D01*
X514Y1829D01*
X512Y1829D01*
X512Y1827D01*
X510Y1827D01*
X510Y1825D01*
X508Y1825D01*
X508Y1823D01*
X506Y1823D01*
X506Y1821D01*
X502Y1821D01*
X502Y1819D01*
X800Y1819D01*
X800Y1821D01*
X794Y1821D01*
X794Y1823D01*
X788Y1823D01*
X788Y1825D01*
X784Y1825D01*
X784Y1827D01*
X782Y1827D01*
X782Y1829D01*
X780Y1829D01*
X780Y1831D01*
X776Y1831D01*
X776Y1833D01*
X774Y1833D01*
X774Y1835D01*
X772Y1835D01*
X772Y1837D01*
X770Y1837D01*
X770Y1841D01*
X768Y1841D01*
X768Y1843D01*
X766Y1843D01*
X766Y1847D01*
X764Y1847D01*
X764Y1849D01*
X762Y1849D01*
X762Y1855D01*
X760Y1855D01*
X760Y1863D01*
X758Y1863D01*
X758Y1871D01*
X760Y1871D01*
X760Y1879D01*
X762Y1879D01*
X762Y1885D01*
X764Y1885D01*
X764Y1887D01*
X766Y1887D01*
X766Y1891D01*
X768Y1891D01*
X768Y1893D01*
X770Y1893D01*
X770Y1897D01*
X772Y1897D01*
X772Y1899D01*
X774Y1899D01*
X774Y1901D01*
X776Y1901D01*
X776Y1903D01*
X780Y1903D01*
X780Y1905D01*
X782Y1905D01*
X782Y1907D01*
X784Y1907D01*
X784Y1909D01*
X788Y1909D01*
X788Y1911D01*
X794Y1911D01*
X794Y1913D01*
X800Y1913D01*
X800Y1915D01*
X616Y1915D01*
G37*
D02*
G36*
X104Y1905D02*
X104Y1827D01*
X272Y1827D01*
X272Y1825D01*
X278Y1825D01*
X278Y1823D01*
X282Y1823D01*
X282Y1821D01*
X286Y1821D01*
X286Y1819D01*
X288Y1819D01*
X288Y1817D01*
X290Y1817D01*
X290Y1815D01*
X294Y1815D01*
X294Y1813D01*
X296Y1813D01*
X296Y1811D01*
X298Y1811D01*
X298Y1807D01*
X300Y1807D01*
X300Y1805D01*
X302Y1805D01*
X302Y1801D01*
X304Y1801D01*
X304Y1799D01*
X306Y1799D01*
X306Y1793D01*
X308Y1793D01*
X308Y1771D01*
X306Y1771D01*
X306Y1767D01*
X304Y1767D01*
X304Y1763D01*
X302Y1763D01*
X302Y1759D01*
X300Y1759D01*
X300Y1757D01*
X298Y1757D01*
X298Y1755D01*
X296Y1755D01*
X296Y1751D01*
X292Y1751D01*
X292Y1749D01*
X290Y1749D01*
X290Y1747D01*
X288Y1747D01*
X288Y1745D01*
X286Y1745D01*
X286Y1743D01*
X282Y1743D01*
X282Y1741D01*
X278Y1741D01*
X278Y1739D01*
X272Y1739D01*
X272Y1737D01*
X418Y1737D01*
X418Y1739D01*
X414Y1739D01*
X414Y1741D01*
X410Y1741D01*
X410Y1743D01*
X406Y1743D01*
X406Y1745D01*
X402Y1745D01*
X402Y1747D01*
X400Y1747D01*
X400Y1749D01*
X398Y1749D01*
X398Y1751D01*
X396Y1751D01*
X396Y1753D01*
X394Y1753D01*
X394Y1755D01*
X392Y1755D01*
X392Y1757D01*
X390Y1757D01*
X390Y1761D01*
X388Y1761D01*
X388Y1763D01*
X386Y1763D01*
X386Y1767D01*
X384Y1767D01*
X384Y1773D01*
X382Y1773D01*
X382Y1811D01*
X374Y1811D01*
X374Y1813D01*
X366Y1813D01*
X366Y1815D01*
X360Y1815D01*
X360Y1817D01*
X358Y1817D01*
X358Y1819D01*
X354Y1819D01*
X354Y1821D01*
X352Y1821D01*
X352Y1823D01*
X350Y1823D01*
X350Y1825D01*
X346Y1825D01*
X346Y1827D01*
X344Y1827D01*
X344Y1831D01*
X342Y1831D01*
X342Y1833D01*
X340Y1833D01*
X340Y1835D01*
X338Y1835D01*
X338Y1839D01*
X336Y1839D01*
X336Y1843D01*
X334Y1843D01*
X334Y1849D01*
X332Y1849D01*
X332Y1869D01*
X334Y1869D01*
X334Y1875D01*
X336Y1875D01*
X336Y1879D01*
X338Y1879D01*
X338Y1881D01*
X340Y1881D01*
X340Y1885D01*
X342Y1885D01*
X342Y1887D01*
X344Y1887D01*
X344Y1889D01*
X346Y1889D01*
X346Y1891D01*
X348Y1891D01*
X348Y1893D01*
X350Y1893D01*
X350Y1895D01*
X352Y1895D01*
X352Y1897D01*
X356Y1897D01*
X356Y1899D01*
X358Y1899D01*
X358Y1901D01*
X362Y1901D01*
X362Y1903D01*
X368Y1903D01*
X368Y1905D01*
X104Y1905D01*
G37*
D02*
G36*
X388Y1905D02*
X388Y1903D01*
X394Y1903D01*
X394Y1901D01*
X398Y1901D01*
X398Y1899D01*
X402Y1899D01*
X402Y1897D01*
X404Y1897D01*
X404Y1895D01*
X406Y1895D01*
X406Y1893D01*
X410Y1893D01*
X410Y1891D01*
X412Y1891D01*
X412Y1887D01*
X414Y1887D01*
X414Y1885D01*
X416Y1885D01*
X416Y1883D01*
X418Y1883D01*
X418Y1879D01*
X438Y1879D01*
X438Y1881D01*
X440Y1881D01*
X440Y1885D01*
X442Y1885D01*
X442Y1887D01*
X444Y1887D01*
X444Y1889D01*
X446Y1889D01*
X446Y1891D01*
X448Y1891D01*
X448Y1893D01*
X450Y1893D01*
X450Y1895D01*
X452Y1895D01*
X452Y1897D01*
X456Y1897D01*
X456Y1899D01*
X458Y1899D01*
X458Y1901D01*
X462Y1901D01*
X462Y1903D01*
X468Y1903D01*
X468Y1905D01*
X388Y1905D01*
G37*
D02*
G36*
X104Y1827D02*
X104Y1803D01*
X102Y1803D01*
X102Y1795D01*
X122Y1795D01*
X122Y1799D01*
X124Y1799D01*
X124Y1803D01*
X126Y1803D01*
X126Y1807D01*
X128Y1807D01*
X128Y1809D01*
X130Y1809D01*
X130Y1811D01*
X132Y1811D01*
X132Y1813D01*
X134Y1813D01*
X134Y1815D01*
X136Y1815D01*
X136Y1817D01*
X138Y1817D01*
X138Y1819D01*
X142Y1819D01*
X142Y1821D01*
X146Y1821D01*
X146Y1823D01*
X150Y1823D01*
X150Y1825D01*
X156Y1825D01*
X156Y1827D01*
X104Y1827D01*
G37*
D02*
G36*
X172Y1827D02*
X172Y1825D01*
X178Y1825D01*
X178Y1823D01*
X182Y1823D01*
X182Y1821D01*
X186Y1821D01*
X186Y1819D01*
X188Y1819D01*
X188Y1817D01*
X190Y1817D01*
X190Y1815D01*
X194Y1815D01*
X194Y1813D01*
X196Y1813D01*
X196Y1809D01*
X198Y1809D01*
X198Y1807D01*
X200Y1807D01*
X200Y1805D01*
X202Y1805D01*
X202Y1801D01*
X204Y1801D01*
X204Y1799D01*
X224Y1799D01*
X224Y1803D01*
X226Y1803D01*
X226Y1805D01*
X228Y1805D01*
X228Y1809D01*
X230Y1809D01*
X230Y1811D01*
X232Y1811D01*
X232Y1813D01*
X234Y1813D01*
X234Y1815D01*
X236Y1815D01*
X236Y1817D01*
X238Y1817D01*
X238Y1819D01*
X242Y1819D01*
X242Y1821D01*
X246Y1821D01*
X246Y1823D01*
X250Y1823D01*
X250Y1825D01*
X256Y1825D01*
X256Y1827D01*
X172Y1827D01*
G37*
D02*
G36*
X500Y1819D02*
X500Y1817D01*
X1172Y1817D01*
X1172Y1819D01*
X500Y1819D01*
G37*
D02*
G36*
X500Y1819D02*
X500Y1817D01*
X1172Y1817D01*
X1172Y1819D01*
X500Y1819D01*
G37*
D02*
G36*
X496Y1817D02*
X496Y1815D01*
X490Y1815D01*
X490Y1813D01*
X484Y1813D01*
X484Y1811D01*
X474Y1811D01*
X474Y1801D01*
X1096Y1801D01*
X1096Y1799D01*
X1102Y1799D01*
X1102Y1797D01*
X1106Y1797D01*
X1106Y1795D01*
X1110Y1795D01*
X1110Y1793D01*
X1114Y1793D01*
X1114Y1791D01*
X1116Y1791D01*
X1116Y1789D01*
X1118Y1789D01*
X1118Y1787D01*
X1120Y1787D01*
X1120Y1785D01*
X1122Y1785D01*
X1122Y1783D01*
X1124Y1783D01*
X1124Y1781D01*
X1126Y1781D01*
X1126Y1777D01*
X1128Y1777D01*
X1128Y1775D01*
X1130Y1775D01*
X1130Y1771D01*
X1132Y1771D01*
X1132Y1765D01*
X1134Y1765D01*
X1134Y1755D01*
X1136Y1755D01*
X1136Y1753D01*
X1134Y1753D01*
X1134Y1743D01*
X1132Y1743D01*
X1132Y1737D01*
X1130Y1737D01*
X1130Y1733D01*
X1128Y1733D01*
X1128Y1729D01*
X1126Y1729D01*
X1126Y1727D01*
X1124Y1727D01*
X1124Y1725D01*
X1122Y1725D01*
X1122Y1723D01*
X1120Y1723D01*
X1120Y1721D01*
X1118Y1721D01*
X1118Y1719D01*
X1116Y1719D01*
X1116Y1717D01*
X1114Y1717D01*
X1114Y1715D01*
X1112Y1715D01*
X1112Y1713D01*
X1108Y1713D01*
X1108Y1711D01*
X1104Y1711D01*
X1104Y1709D01*
X1098Y1709D01*
X1098Y1707D01*
X1148Y1707D01*
X1148Y1717D01*
X1150Y1717D01*
X1150Y1725D01*
X1152Y1725D01*
X1152Y1733D01*
X1154Y1733D01*
X1154Y1743D01*
X1156Y1743D01*
X1156Y1751D01*
X1158Y1751D01*
X1158Y1759D01*
X1160Y1759D01*
X1160Y1769D01*
X1162Y1769D01*
X1162Y1777D01*
X1164Y1777D01*
X1164Y1785D01*
X1166Y1785D01*
X1166Y1795D01*
X1168Y1795D01*
X1168Y1803D01*
X1170Y1803D01*
X1170Y1811D01*
X1172Y1811D01*
X1172Y1817D01*
X496Y1817D01*
G37*
D02*
G36*
X474Y1801D02*
X474Y1789D01*
X476Y1789D01*
X476Y1779D01*
X474Y1779D01*
X474Y1771D01*
X472Y1771D01*
X472Y1765D01*
X470Y1765D01*
X470Y1763D01*
X468Y1763D01*
X468Y1759D01*
X466Y1759D01*
X466Y1757D01*
X464Y1757D01*
X464Y1755D01*
X462Y1755D01*
X462Y1751D01*
X458Y1751D01*
X458Y1749D01*
X456Y1749D01*
X456Y1747D01*
X454Y1747D01*
X454Y1745D01*
X452Y1745D01*
X452Y1743D01*
X448Y1743D01*
X448Y1741D01*
X444Y1741D01*
X444Y1739D01*
X438Y1739D01*
X438Y1737D01*
X644Y1737D01*
X644Y1739D01*
X642Y1739D01*
X642Y1745D01*
X640Y1745D01*
X640Y1761D01*
X642Y1761D01*
X642Y1767D01*
X644Y1767D01*
X644Y1773D01*
X646Y1773D01*
X646Y1775D01*
X648Y1775D01*
X648Y1779D01*
X650Y1779D01*
X650Y1781D01*
X652Y1781D01*
X652Y1783D01*
X654Y1783D01*
X654Y1787D01*
X658Y1787D01*
X658Y1789D01*
X660Y1789D01*
X660Y1791D01*
X662Y1791D01*
X662Y1793D01*
X664Y1793D01*
X664Y1795D01*
X668Y1795D01*
X668Y1797D01*
X672Y1797D01*
X672Y1799D01*
X678Y1799D01*
X678Y1801D01*
X474Y1801D01*
G37*
D02*
G36*
X696Y1801D02*
X696Y1799D01*
X702Y1799D01*
X702Y1797D01*
X706Y1797D01*
X706Y1795D01*
X710Y1795D01*
X710Y1793D01*
X714Y1793D01*
X714Y1791D01*
X716Y1791D01*
X716Y1789D01*
X718Y1789D01*
X718Y1787D01*
X720Y1787D01*
X720Y1785D01*
X722Y1785D01*
X722Y1783D01*
X724Y1783D01*
X724Y1781D01*
X726Y1781D01*
X726Y1777D01*
X728Y1777D01*
X728Y1775D01*
X730Y1775D01*
X730Y1771D01*
X732Y1771D01*
X732Y1765D01*
X734Y1765D01*
X734Y1755D01*
X736Y1755D01*
X736Y1753D01*
X734Y1753D01*
X734Y1743D01*
X732Y1743D01*
X732Y1737D01*
X730Y1737D01*
X730Y1733D01*
X728Y1733D01*
X728Y1729D01*
X726Y1729D01*
X726Y1727D01*
X724Y1727D01*
X724Y1725D01*
X722Y1725D01*
X722Y1723D01*
X720Y1723D01*
X720Y1721D01*
X718Y1721D01*
X718Y1719D01*
X716Y1719D01*
X716Y1717D01*
X714Y1717D01*
X714Y1715D01*
X712Y1715D01*
X712Y1713D01*
X708Y1713D01*
X708Y1711D01*
X704Y1711D01*
X704Y1709D01*
X698Y1709D01*
X698Y1707D01*
X1076Y1707D01*
X1076Y1709D01*
X1072Y1709D01*
X1072Y1711D01*
X1068Y1711D01*
X1068Y1713D01*
X1064Y1713D01*
X1064Y1715D01*
X1062Y1715D01*
X1062Y1717D01*
X1058Y1717D01*
X1058Y1719D01*
X1056Y1719D01*
X1056Y1721D01*
X1054Y1721D01*
X1054Y1723D01*
X1052Y1723D01*
X1052Y1725D01*
X1050Y1725D01*
X1050Y1729D01*
X1048Y1729D01*
X1048Y1731D01*
X1046Y1731D01*
X1046Y1735D01*
X1044Y1735D01*
X1044Y1739D01*
X1042Y1739D01*
X1042Y1745D01*
X1040Y1745D01*
X1040Y1761D01*
X1042Y1761D01*
X1042Y1767D01*
X1044Y1767D01*
X1044Y1773D01*
X1046Y1773D01*
X1046Y1775D01*
X1048Y1775D01*
X1048Y1779D01*
X1050Y1779D01*
X1050Y1781D01*
X1052Y1781D01*
X1052Y1783D01*
X1054Y1783D01*
X1054Y1787D01*
X1058Y1787D01*
X1058Y1789D01*
X1060Y1789D01*
X1060Y1791D01*
X1062Y1791D01*
X1062Y1793D01*
X1064Y1793D01*
X1064Y1795D01*
X1068Y1795D01*
X1068Y1797D01*
X1072Y1797D01*
X1072Y1799D01*
X1078Y1799D01*
X1078Y1801D01*
X696Y1801D01*
G37*
D02*
G36*
X102Y1769D02*
X102Y1737D01*
X156Y1737D01*
X156Y1739D01*
X150Y1739D01*
X150Y1741D01*
X146Y1741D01*
X146Y1743D01*
X142Y1743D01*
X142Y1745D01*
X140Y1745D01*
X140Y1747D01*
X136Y1747D01*
X136Y1749D01*
X134Y1749D01*
X134Y1751D01*
X132Y1751D01*
X132Y1753D01*
X130Y1753D01*
X130Y1755D01*
X128Y1755D01*
X128Y1759D01*
X126Y1759D01*
X126Y1761D01*
X124Y1761D01*
X124Y1765D01*
X122Y1765D01*
X122Y1769D01*
X102Y1769D01*
G37*
D02*
G36*
X204Y1765D02*
X204Y1763D01*
X202Y1763D01*
X202Y1759D01*
X200Y1759D01*
X200Y1757D01*
X198Y1757D01*
X198Y1755D01*
X196Y1755D01*
X196Y1753D01*
X194Y1753D01*
X194Y1751D01*
X192Y1751D01*
X192Y1749D01*
X190Y1749D01*
X190Y1747D01*
X188Y1747D01*
X188Y1745D01*
X184Y1745D01*
X184Y1743D01*
X182Y1743D01*
X182Y1741D01*
X176Y1741D01*
X176Y1739D01*
X172Y1739D01*
X172Y1737D01*
X256Y1737D01*
X256Y1739D01*
X250Y1739D01*
X250Y1741D01*
X246Y1741D01*
X246Y1743D01*
X242Y1743D01*
X242Y1745D01*
X240Y1745D01*
X240Y1747D01*
X236Y1747D01*
X236Y1749D01*
X234Y1749D01*
X234Y1751D01*
X232Y1751D01*
X232Y1753D01*
X230Y1753D01*
X230Y1757D01*
X228Y1757D01*
X228Y1759D01*
X226Y1759D01*
X226Y1761D01*
X224Y1761D01*
X224Y1765D01*
X204Y1765D01*
G37*
D02*
G36*
X102Y1737D02*
X102Y1735D01*
X644Y1735D01*
X644Y1737D01*
X102Y1737D01*
G37*
D02*
G36*
X102Y1737D02*
X102Y1735D01*
X644Y1735D01*
X644Y1737D01*
X102Y1737D01*
G37*
D02*
G36*
X102Y1737D02*
X102Y1735D01*
X644Y1735D01*
X644Y1737D01*
X102Y1737D01*
G37*
D02*
G36*
X102Y1737D02*
X102Y1735D01*
X644Y1735D01*
X644Y1737D01*
X102Y1737D01*
G37*
D02*
G36*
X102Y1735D02*
X102Y1711D01*
X104Y1711D01*
X104Y1709D01*
X108Y1709D01*
X108Y1707D01*
X676Y1707D01*
X676Y1709D01*
X672Y1709D01*
X672Y1711D01*
X668Y1711D01*
X668Y1713D01*
X664Y1713D01*
X664Y1715D01*
X662Y1715D01*
X662Y1717D01*
X658Y1717D01*
X658Y1719D01*
X656Y1719D01*
X656Y1721D01*
X654Y1721D01*
X654Y1723D01*
X652Y1723D01*
X652Y1725D01*
X650Y1725D01*
X650Y1729D01*
X648Y1729D01*
X648Y1731D01*
X646Y1731D01*
X646Y1735D01*
X102Y1735D01*
G37*
D02*
G36*
X110Y1707D02*
X110Y1705D01*
X1146Y1705D01*
X1146Y1707D01*
X110Y1707D01*
G37*
D02*
G36*
X110Y1707D02*
X110Y1705D01*
X1146Y1705D01*
X1146Y1707D01*
X110Y1707D01*
G37*
D02*
G36*
X110Y1707D02*
X110Y1705D01*
X1146Y1705D01*
X1146Y1707D01*
X110Y1707D01*
G37*
D02*
G36*
X112Y1705D02*
X112Y1703D01*
X114Y1703D01*
X114Y1701D01*
X116Y1701D01*
X116Y1697D01*
X118Y1697D01*
X118Y1695D01*
X120Y1695D01*
X120Y1693D01*
X488Y1693D01*
X488Y1691D01*
X494Y1691D01*
X494Y1689D01*
X500Y1689D01*
X500Y1687D01*
X504Y1687D01*
X504Y1685D01*
X506Y1685D01*
X506Y1683D01*
X510Y1683D01*
X510Y1681D01*
X512Y1681D01*
X512Y1679D01*
X514Y1679D01*
X514Y1677D01*
X516Y1677D01*
X516Y1675D01*
X518Y1675D01*
X518Y1673D01*
X520Y1673D01*
X520Y1671D01*
X522Y1671D01*
X522Y1667D01*
X524Y1667D01*
X524Y1663D01*
X526Y1663D01*
X526Y1659D01*
X528Y1659D01*
X528Y1653D01*
X530Y1653D01*
X530Y1637D01*
X528Y1637D01*
X528Y1631D01*
X526Y1631D01*
X526Y1627D01*
X524Y1627D01*
X524Y1623D01*
X522Y1623D01*
X522Y1619D01*
X520Y1619D01*
X520Y1617D01*
X518Y1617D01*
X518Y1615D01*
X516Y1615D01*
X516Y1613D01*
X514Y1613D01*
X514Y1611D01*
X512Y1611D01*
X512Y1609D01*
X510Y1609D01*
X510Y1607D01*
X658Y1607D01*
X658Y1517D01*
X638Y1517D01*
X638Y1497D01*
X640Y1497D01*
X640Y1495D01*
X642Y1495D01*
X642Y1493D01*
X646Y1493D01*
X646Y1489D01*
X648Y1489D01*
X648Y1487D01*
X650Y1487D01*
X650Y1485D01*
X652Y1485D01*
X652Y1481D01*
X654Y1481D01*
X654Y1477D01*
X656Y1477D01*
X656Y1471D01*
X658Y1471D01*
X658Y1453D01*
X656Y1453D01*
X656Y1447D01*
X654Y1447D01*
X654Y1443D01*
X652Y1443D01*
X652Y1439D01*
X650Y1439D01*
X650Y1437D01*
X648Y1437D01*
X648Y1435D01*
X646Y1435D01*
X646Y1431D01*
X644Y1431D01*
X644Y1429D01*
X640Y1429D01*
X640Y1427D01*
X638Y1427D01*
X638Y1425D01*
X636Y1425D01*
X636Y1423D01*
X632Y1423D01*
X632Y1401D01*
X636Y1401D01*
X636Y1399D01*
X638Y1399D01*
X638Y1397D01*
X640Y1397D01*
X640Y1395D01*
X642Y1395D01*
X642Y1393D01*
X646Y1393D01*
X646Y1389D01*
X648Y1389D01*
X648Y1387D01*
X650Y1387D01*
X650Y1385D01*
X652Y1385D01*
X652Y1381D01*
X654Y1381D01*
X654Y1377D01*
X656Y1377D01*
X656Y1371D01*
X658Y1371D01*
X658Y1353D01*
X656Y1353D01*
X656Y1347D01*
X654Y1347D01*
X654Y1343D01*
X652Y1343D01*
X652Y1339D01*
X650Y1339D01*
X650Y1337D01*
X648Y1337D01*
X648Y1335D01*
X646Y1335D01*
X646Y1331D01*
X644Y1331D01*
X644Y1329D01*
X640Y1329D01*
X640Y1327D01*
X638Y1327D01*
X638Y1325D01*
X636Y1325D01*
X636Y1323D01*
X632Y1323D01*
X632Y1301D01*
X636Y1301D01*
X636Y1299D01*
X638Y1299D01*
X638Y1297D01*
X640Y1297D01*
X640Y1295D01*
X642Y1295D01*
X642Y1293D01*
X646Y1293D01*
X646Y1289D01*
X648Y1289D01*
X648Y1287D01*
X650Y1287D01*
X650Y1285D01*
X652Y1285D01*
X652Y1281D01*
X654Y1281D01*
X654Y1277D01*
X656Y1277D01*
X656Y1271D01*
X658Y1271D01*
X658Y1253D01*
X656Y1253D01*
X656Y1247D01*
X654Y1247D01*
X654Y1243D01*
X652Y1243D01*
X652Y1239D01*
X650Y1239D01*
X650Y1237D01*
X648Y1237D01*
X648Y1235D01*
X646Y1235D01*
X646Y1231D01*
X644Y1231D01*
X644Y1229D01*
X640Y1229D01*
X640Y1227D01*
X638Y1227D01*
X638Y1225D01*
X636Y1225D01*
X636Y1223D01*
X632Y1223D01*
X632Y1201D01*
X636Y1201D01*
X636Y1199D01*
X638Y1199D01*
X638Y1197D01*
X640Y1197D01*
X640Y1195D01*
X642Y1195D01*
X642Y1193D01*
X646Y1193D01*
X646Y1189D01*
X648Y1189D01*
X648Y1187D01*
X650Y1187D01*
X650Y1185D01*
X652Y1185D01*
X652Y1181D01*
X654Y1181D01*
X654Y1177D01*
X656Y1177D01*
X656Y1171D01*
X658Y1171D01*
X658Y1153D01*
X656Y1153D01*
X656Y1147D01*
X654Y1147D01*
X654Y1143D01*
X652Y1143D01*
X652Y1139D01*
X650Y1139D01*
X650Y1137D01*
X648Y1137D01*
X648Y1135D01*
X646Y1135D01*
X646Y1131D01*
X644Y1131D01*
X644Y1129D01*
X640Y1129D01*
X640Y1127D01*
X638Y1127D01*
X638Y1125D01*
X636Y1125D01*
X636Y1123D01*
X632Y1123D01*
X632Y1101D01*
X636Y1101D01*
X636Y1099D01*
X638Y1099D01*
X638Y1097D01*
X640Y1097D01*
X640Y1095D01*
X642Y1095D01*
X642Y1093D01*
X646Y1093D01*
X646Y1089D01*
X648Y1089D01*
X648Y1087D01*
X650Y1087D01*
X650Y1085D01*
X652Y1085D01*
X652Y1081D01*
X654Y1081D01*
X654Y1077D01*
X656Y1077D01*
X656Y1071D01*
X658Y1071D01*
X658Y1053D01*
X656Y1053D01*
X656Y1047D01*
X654Y1047D01*
X654Y1043D01*
X652Y1043D01*
X652Y1039D01*
X650Y1039D01*
X650Y1037D01*
X648Y1037D01*
X648Y1035D01*
X646Y1035D01*
X646Y1031D01*
X644Y1031D01*
X644Y1029D01*
X640Y1029D01*
X640Y1027D01*
X638Y1027D01*
X638Y1025D01*
X636Y1025D01*
X636Y1023D01*
X632Y1023D01*
X632Y1001D01*
X636Y1001D01*
X636Y999D01*
X638Y999D01*
X638Y997D01*
X640Y997D01*
X640Y995D01*
X642Y995D01*
X642Y993D01*
X646Y993D01*
X646Y989D01*
X648Y989D01*
X648Y987D01*
X650Y987D01*
X650Y985D01*
X652Y985D01*
X652Y981D01*
X654Y981D01*
X654Y977D01*
X656Y977D01*
X656Y971D01*
X658Y971D01*
X658Y953D01*
X656Y953D01*
X656Y947D01*
X654Y947D01*
X654Y943D01*
X652Y943D01*
X652Y939D01*
X650Y939D01*
X650Y937D01*
X648Y937D01*
X648Y935D01*
X646Y935D01*
X646Y931D01*
X644Y931D01*
X644Y929D01*
X640Y929D01*
X640Y927D01*
X638Y927D01*
X638Y925D01*
X636Y925D01*
X636Y923D01*
X632Y923D01*
X632Y901D01*
X636Y901D01*
X636Y899D01*
X638Y899D01*
X638Y897D01*
X640Y897D01*
X640Y895D01*
X642Y895D01*
X642Y893D01*
X646Y893D01*
X646Y889D01*
X648Y889D01*
X648Y887D01*
X650Y887D01*
X650Y885D01*
X652Y885D01*
X652Y881D01*
X654Y881D01*
X654Y877D01*
X656Y877D01*
X656Y871D01*
X658Y871D01*
X658Y853D01*
X656Y853D01*
X656Y847D01*
X654Y847D01*
X654Y843D01*
X652Y843D01*
X652Y839D01*
X650Y839D01*
X650Y837D01*
X648Y837D01*
X648Y835D01*
X646Y835D01*
X646Y831D01*
X644Y831D01*
X644Y829D01*
X640Y829D01*
X640Y827D01*
X638Y827D01*
X638Y825D01*
X636Y825D01*
X636Y823D01*
X632Y823D01*
X632Y801D01*
X636Y801D01*
X636Y799D01*
X638Y799D01*
X638Y797D01*
X640Y797D01*
X640Y795D01*
X642Y795D01*
X642Y793D01*
X646Y793D01*
X646Y789D01*
X648Y789D01*
X648Y787D01*
X650Y787D01*
X650Y785D01*
X652Y785D01*
X652Y781D01*
X654Y781D01*
X654Y777D01*
X656Y777D01*
X656Y771D01*
X658Y771D01*
X658Y753D01*
X656Y753D01*
X656Y747D01*
X654Y747D01*
X654Y743D01*
X652Y743D01*
X652Y739D01*
X650Y739D01*
X650Y737D01*
X648Y737D01*
X648Y735D01*
X646Y735D01*
X646Y731D01*
X644Y731D01*
X644Y729D01*
X640Y729D01*
X640Y727D01*
X638Y727D01*
X638Y725D01*
X636Y725D01*
X636Y723D01*
X632Y723D01*
X632Y701D01*
X636Y701D01*
X636Y699D01*
X638Y699D01*
X638Y697D01*
X640Y697D01*
X640Y695D01*
X642Y695D01*
X642Y693D01*
X646Y693D01*
X646Y689D01*
X648Y689D01*
X648Y687D01*
X650Y687D01*
X650Y685D01*
X652Y685D01*
X652Y681D01*
X654Y681D01*
X654Y677D01*
X656Y677D01*
X656Y671D01*
X658Y671D01*
X658Y653D01*
X656Y653D01*
X656Y647D01*
X654Y647D01*
X654Y643D01*
X652Y643D01*
X652Y639D01*
X650Y639D01*
X650Y637D01*
X648Y637D01*
X648Y635D01*
X646Y635D01*
X646Y631D01*
X644Y631D01*
X644Y629D01*
X640Y629D01*
X640Y627D01*
X638Y627D01*
X638Y625D01*
X636Y625D01*
X636Y623D01*
X632Y623D01*
X632Y601D01*
X636Y601D01*
X636Y599D01*
X638Y599D01*
X638Y597D01*
X640Y597D01*
X640Y595D01*
X642Y595D01*
X642Y593D01*
X646Y593D01*
X646Y589D01*
X648Y589D01*
X648Y587D01*
X650Y587D01*
X650Y585D01*
X652Y585D01*
X652Y581D01*
X654Y581D01*
X654Y577D01*
X656Y577D01*
X656Y571D01*
X658Y571D01*
X658Y553D01*
X656Y553D01*
X656Y547D01*
X654Y547D01*
X654Y543D01*
X652Y543D01*
X652Y539D01*
X650Y539D01*
X650Y537D01*
X648Y537D01*
X648Y535D01*
X646Y535D01*
X646Y531D01*
X644Y531D01*
X644Y529D01*
X640Y529D01*
X640Y527D01*
X638Y527D01*
X638Y525D01*
X636Y525D01*
X636Y523D01*
X632Y523D01*
X632Y501D01*
X636Y501D01*
X636Y499D01*
X638Y499D01*
X638Y497D01*
X640Y497D01*
X640Y495D01*
X642Y495D01*
X642Y493D01*
X646Y493D01*
X646Y489D01*
X648Y489D01*
X648Y487D01*
X650Y487D01*
X650Y485D01*
X652Y485D01*
X652Y481D01*
X654Y481D01*
X654Y477D01*
X656Y477D01*
X656Y471D01*
X658Y471D01*
X658Y453D01*
X656Y453D01*
X656Y447D01*
X654Y447D01*
X654Y443D01*
X652Y443D01*
X652Y439D01*
X650Y439D01*
X650Y437D01*
X648Y437D01*
X648Y435D01*
X646Y435D01*
X646Y431D01*
X644Y431D01*
X644Y429D01*
X640Y429D01*
X640Y427D01*
X638Y427D01*
X638Y425D01*
X636Y425D01*
X636Y423D01*
X632Y423D01*
X632Y401D01*
X636Y401D01*
X636Y399D01*
X638Y399D01*
X638Y397D01*
X640Y397D01*
X640Y395D01*
X642Y395D01*
X642Y393D01*
X646Y393D01*
X646Y389D01*
X648Y389D01*
X648Y387D01*
X650Y387D01*
X650Y385D01*
X652Y385D01*
X652Y381D01*
X654Y381D01*
X654Y377D01*
X656Y377D01*
X656Y371D01*
X658Y371D01*
X658Y353D01*
X656Y353D01*
X656Y347D01*
X654Y347D01*
X654Y343D01*
X652Y343D01*
X652Y339D01*
X650Y339D01*
X650Y337D01*
X648Y337D01*
X648Y335D01*
X646Y335D01*
X646Y331D01*
X644Y331D01*
X644Y329D01*
X640Y329D01*
X640Y327D01*
X638Y327D01*
X638Y325D01*
X636Y325D01*
X636Y323D01*
X632Y323D01*
X632Y301D01*
X636Y301D01*
X636Y299D01*
X638Y299D01*
X638Y297D01*
X640Y297D01*
X640Y295D01*
X642Y295D01*
X642Y293D01*
X646Y293D01*
X646Y289D01*
X648Y289D01*
X648Y287D01*
X650Y287D01*
X650Y285D01*
X652Y285D01*
X652Y281D01*
X654Y281D01*
X654Y277D01*
X656Y277D01*
X656Y271D01*
X658Y271D01*
X658Y253D01*
X656Y253D01*
X656Y247D01*
X654Y247D01*
X654Y243D01*
X652Y243D01*
X652Y239D01*
X650Y239D01*
X650Y237D01*
X648Y237D01*
X648Y235D01*
X646Y235D01*
X646Y231D01*
X644Y231D01*
X644Y229D01*
X640Y229D01*
X640Y227D01*
X638Y227D01*
X638Y225D01*
X636Y225D01*
X636Y223D01*
X632Y223D01*
X632Y201D01*
X636Y201D01*
X636Y199D01*
X638Y199D01*
X638Y197D01*
X640Y197D01*
X640Y195D01*
X642Y195D01*
X642Y193D01*
X646Y193D01*
X646Y189D01*
X648Y189D01*
X648Y187D01*
X650Y187D01*
X650Y185D01*
X652Y185D01*
X652Y181D01*
X654Y181D01*
X654Y177D01*
X656Y177D01*
X656Y171D01*
X658Y171D01*
X658Y153D01*
X656Y153D01*
X656Y147D01*
X654Y147D01*
X654Y143D01*
X652Y143D01*
X652Y139D01*
X650Y139D01*
X650Y137D01*
X648Y137D01*
X648Y135D01*
X646Y135D01*
X646Y131D01*
X644Y131D01*
X644Y129D01*
X640Y129D01*
X640Y127D01*
X638Y127D01*
X638Y125D01*
X636Y125D01*
X636Y123D01*
X632Y123D01*
X632Y121D01*
X628Y121D01*
X628Y119D01*
X622Y119D01*
X622Y117D01*
X1206Y117D01*
X1206Y119D01*
X1200Y119D01*
X1200Y121D01*
X1196Y121D01*
X1196Y123D01*
X1192Y123D01*
X1192Y125D01*
X1188Y125D01*
X1188Y127D01*
X1186Y127D01*
X1186Y129D01*
X1184Y129D01*
X1184Y131D01*
X1182Y131D01*
X1182Y133D01*
X1180Y133D01*
X1180Y135D01*
X1178Y135D01*
X1178Y137D01*
X1176Y137D01*
X1176Y141D01*
X1174Y141D01*
X1174Y145D01*
X1172Y145D01*
X1172Y149D01*
X1170Y149D01*
X1170Y157D01*
X1168Y157D01*
X1168Y167D01*
X1170Y167D01*
X1170Y175D01*
X1172Y175D01*
X1172Y179D01*
X1174Y179D01*
X1174Y183D01*
X1176Y183D01*
X1176Y187D01*
X1178Y187D01*
X1178Y189D01*
X1180Y189D01*
X1180Y191D01*
X1182Y191D01*
X1182Y193D01*
X1184Y193D01*
X1184Y195D01*
X1186Y195D01*
X1186Y197D01*
X1188Y197D01*
X1188Y199D01*
X1192Y199D01*
X1192Y201D01*
X1196Y201D01*
X1196Y223D01*
X1192Y223D01*
X1192Y225D01*
X1188Y225D01*
X1188Y227D01*
X1186Y227D01*
X1186Y229D01*
X1184Y229D01*
X1184Y231D01*
X1182Y231D01*
X1182Y233D01*
X1180Y233D01*
X1180Y235D01*
X1178Y235D01*
X1178Y237D01*
X1176Y237D01*
X1176Y241D01*
X1174Y241D01*
X1174Y245D01*
X1172Y245D01*
X1172Y249D01*
X1170Y249D01*
X1170Y257D01*
X1168Y257D01*
X1168Y267D01*
X1170Y267D01*
X1170Y275D01*
X1172Y275D01*
X1172Y279D01*
X1174Y279D01*
X1174Y283D01*
X1176Y283D01*
X1176Y287D01*
X1178Y287D01*
X1178Y289D01*
X1180Y289D01*
X1180Y291D01*
X1182Y291D01*
X1182Y293D01*
X1184Y293D01*
X1184Y295D01*
X1186Y295D01*
X1186Y297D01*
X1188Y297D01*
X1188Y299D01*
X1192Y299D01*
X1192Y301D01*
X1196Y301D01*
X1196Y323D01*
X1192Y323D01*
X1192Y325D01*
X1188Y325D01*
X1188Y327D01*
X1186Y327D01*
X1186Y329D01*
X1184Y329D01*
X1184Y331D01*
X1182Y331D01*
X1182Y333D01*
X1180Y333D01*
X1180Y335D01*
X1178Y335D01*
X1178Y337D01*
X1176Y337D01*
X1176Y341D01*
X1174Y341D01*
X1174Y345D01*
X1172Y345D01*
X1172Y349D01*
X1170Y349D01*
X1170Y357D01*
X1168Y357D01*
X1168Y379D01*
X1166Y379D01*
X1166Y381D01*
X1164Y381D01*
X1164Y383D01*
X1162Y383D01*
X1162Y385D01*
X1160Y385D01*
X1160Y387D01*
X1158Y387D01*
X1158Y389D01*
X1156Y389D01*
X1156Y391D01*
X1154Y391D01*
X1154Y393D01*
X1152Y393D01*
X1152Y395D01*
X1150Y395D01*
X1150Y399D01*
X1148Y399D01*
X1148Y401D01*
X1146Y401D01*
X1146Y403D01*
X1144Y403D01*
X1144Y405D01*
X1142Y405D01*
X1142Y407D01*
X1140Y407D01*
X1140Y409D01*
X1138Y409D01*
X1138Y411D01*
X1136Y411D01*
X1136Y413D01*
X1134Y413D01*
X1134Y415D01*
X1132Y415D01*
X1132Y417D01*
X1130Y417D01*
X1130Y419D01*
X1128Y419D01*
X1128Y421D01*
X1126Y421D01*
X1126Y423D01*
X1124Y423D01*
X1124Y425D01*
X1122Y425D01*
X1122Y427D01*
X1120Y427D01*
X1120Y429D01*
X1118Y429D01*
X1118Y431D01*
X1116Y431D01*
X1116Y435D01*
X1114Y435D01*
X1114Y437D01*
X1112Y437D01*
X1112Y439D01*
X1110Y439D01*
X1110Y441D01*
X1108Y441D01*
X1108Y443D01*
X1106Y443D01*
X1106Y445D01*
X1104Y445D01*
X1104Y451D01*
X1102Y451D01*
X1102Y897D01*
X1100Y897D01*
X1100Y1507D01*
X1102Y1507D01*
X1102Y1517D01*
X1104Y1517D01*
X1104Y1525D01*
X1106Y1525D01*
X1106Y1533D01*
X1108Y1533D01*
X1108Y1543D01*
X1110Y1543D01*
X1110Y1551D01*
X1112Y1551D01*
X1112Y1559D01*
X1114Y1559D01*
X1114Y1569D01*
X1116Y1569D01*
X1116Y1577D01*
X1118Y1577D01*
X1118Y1585D01*
X1120Y1585D01*
X1120Y1595D01*
X1122Y1595D01*
X1122Y1603D01*
X1124Y1603D01*
X1124Y1611D01*
X1126Y1611D01*
X1126Y1621D01*
X1128Y1621D01*
X1128Y1629D01*
X1130Y1629D01*
X1130Y1637D01*
X1132Y1637D01*
X1132Y1647D01*
X1134Y1647D01*
X1134Y1655D01*
X1136Y1655D01*
X1136Y1663D01*
X1138Y1663D01*
X1138Y1673D01*
X1140Y1673D01*
X1140Y1681D01*
X1142Y1681D01*
X1142Y1689D01*
X1144Y1689D01*
X1144Y1699D01*
X1146Y1699D01*
X1146Y1705D01*
X112Y1705D01*
G37*
D02*
G36*
X120Y1693D02*
X120Y1689D01*
X122Y1689D01*
X122Y1683D01*
X124Y1683D01*
X124Y1657D01*
X122Y1657D01*
X122Y1651D01*
X120Y1651D01*
X120Y1647D01*
X118Y1647D01*
X118Y1643D01*
X116Y1643D01*
X116Y1639D01*
X114Y1639D01*
X114Y1637D01*
X112Y1637D01*
X112Y1635D01*
X110Y1635D01*
X110Y1633D01*
X106Y1633D01*
X106Y1631D01*
X102Y1631D01*
X102Y1629D01*
X98Y1629D01*
X98Y1627D01*
X92Y1627D01*
X92Y1625D01*
X440Y1625D01*
X440Y1627D01*
X438Y1627D01*
X438Y1633D01*
X436Y1633D01*
X436Y1641D01*
X434Y1641D01*
X434Y1649D01*
X436Y1649D01*
X436Y1657D01*
X438Y1657D01*
X438Y1663D01*
X440Y1663D01*
X440Y1665D01*
X442Y1665D01*
X442Y1669D01*
X444Y1669D01*
X444Y1671D01*
X446Y1671D01*
X446Y1675D01*
X448Y1675D01*
X448Y1677D01*
X450Y1677D01*
X450Y1679D01*
X452Y1679D01*
X452Y1681D01*
X456Y1681D01*
X456Y1683D01*
X458Y1683D01*
X458Y1685D01*
X462Y1685D01*
X462Y1687D01*
X464Y1687D01*
X464Y1689D01*
X470Y1689D01*
X470Y1691D01*
X478Y1691D01*
X478Y1693D01*
X120Y1693D01*
G37*
D02*
G36*
X40Y1627D02*
X40Y1625D01*
X66Y1625D01*
X66Y1627D01*
X40Y1627D01*
G37*
D02*
G36*
X40Y1625D02*
X40Y1623D01*
X440Y1623D01*
X440Y1625D01*
X40Y1625D01*
G37*
D02*
G36*
X40Y1625D02*
X40Y1623D01*
X440Y1623D01*
X440Y1625D01*
X40Y1625D01*
G37*
D02*
G36*
X40Y1623D02*
X40Y1603D01*
X82Y1603D01*
X82Y1601D01*
X92Y1601D01*
X92Y1599D01*
X98Y1599D01*
X98Y1597D01*
X476Y1597D01*
X476Y1599D01*
X470Y1599D01*
X470Y1601D01*
X464Y1601D01*
X464Y1603D01*
X460Y1603D01*
X460Y1605D01*
X458Y1605D01*
X458Y1607D01*
X454Y1607D01*
X454Y1609D01*
X452Y1609D01*
X452Y1611D01*
X450Y1611D01*
X450Y1613D01*
X448Y1613D01*
X448Y1615D01*
X446Y1615D01*
X446Y1617D01*
X444Y1617D01*
X444Y1621D01*
X442Y1621D01*
X442Y1623D01*
X40Y1623D01*
G37*
D02*
G36*
X508Y1607D02*
X508Y1605D01*
X504Y1605D01*
X504Y1603D01*
X500Y1603D01*
X500Y1601D01*
X496Y1601D01*
X496Y1599D01*
X488Y1599D01*
X488Y1597D01*
X568Y1597D01*
X568Y1607D01*
X508Y1607D01*
G37*
D02*
G36*
X40Y1603D02*
X40Y1595D01*
X60Y1595D01*
X60Y1597D01*
X62Y1597D01*
X62Y1599D01*
X68Y1599D01*
X68Y1601D01*
X78Y1601D01*
X78Y1603D01*
X40Y1603D01*
G37*
D02*
G36*
X100Y1597D02*
X100Y1595D01*
X568Y1595D01*
X568Y1597D01*
X100Y1597D01*
G37*
D02*
G36*
X100Y1597D02*
X100Y1595D01*
X568Y1595D01*
X568Y1597D01*
X100Y1597D01*
G37*
D02*
G36*
X104Y1595D02*
X104Y1593D01*
X106Y1593D01*
X106Y1591D01*
X110Y1591D01*
X110Y1589D01*
X112Y1589D01*
X112Y1587D01*
X114Y1587D01*
X114Y1585D01*
X116Y1585D01*
X116Y1581D01*
X118Y1581D01*
X118Y1579D01*
X120Y1579D01*
X120Y1577D01*
X122Y1577D01*
X122Y1573D01*
X124Y1573D01*
X124Y1567D01*
X126Y1567D01*
X126Y1561D01*
X128Y1561D01*
X128Y1549D01*
X126Y1549D01*
X126Y1541D01*
X124Y1541D01*
X124Y1537D01*
X122Y1537D01*
X122Y1533D01*
X120Y1533D01*
X120Y1529D01*
X118Y1529D01*
X118Y1527D01*
X116Y1527D01*
X116Y1525D01*
X114Y1525D01*
X114Y1523D01*
X112Y1523D01*
X112Y1521D01*
X110Y1521D01*
X110Y1519D01*
X108Y1519D01*
X108Y1517D01*
X106Y1517D01*
X106Y1515D01*
X102Y1515D01*
X102Y1513D01*
X98Y1513D01*
X98Y1511D01*
X94Y1511D01*
X94Y1509D01*
X88Y1509D01*
X88Y1507D01*
X588Y1507D01*
X588Y1517D01*
X568Y1517D01*
X568Y1595D01*
X104Y1595D01*
G37*
D02*
G36*
X40Y1513D02*
X40Y1507D01*
X72Y1507D01*
X72Y1509D01*
X66Y1509D01*
X66Y1511D01*
X62Y1511D01*
X62Y1513D01*
X40Y1513D01*
G37*
D02*
G36*
X40Y1507D02*
X40Y1505D01*
X588Y1505D01*
X588Y1507D01*
X40Y1507D01*
G37*
D02*
G36*
X40Y1507D02*
X40Y1505D01*
X588Y1505D01*
X588Y1507D01*
X40Y1507D01*
G37*
D02*
G36*
X40Y1505D02*
X40Y1433D01*
X374Y1433D01*
X374Y1431D01*
X380Y1431D01*
X380Y1429D01*
X384Y1429D01*
X384Y1427D01*
X388Y1427D01*
X388Y1425D01*
X392Y1425D01*
X392Y1423D01*
X394Y1423D01*
X394Y1421D01*
X396Y1421D01*
X396Y1419D01*
X398Y1419D01*
X398Y1417D01*
X400Y1417D01*
X400Y1413D01*
X402Y1413D01*
X402Y1409D01*
X404Y1409D01*
X404Y1403D01*
X406Y1403D01*
X406Y1395D01*
X408Y1395D01*
X408Y1381D01*
X406Y1381D01*
X406Y1371D01*
X404Y1371D01*
X404Y1365D01*
X402Y1365D01*
X402Y1361D01*
X400Y1361D01*
X400Y1359D01*
X398Y1359D01*
X398Y1355D01*
X396Y1355D01*
X396Y1353D01*
X394Y1353D01*
X394Y1351D01*
X390Y1351D01*
X390Y1349D01*
X388Y1349D01*
X388Y1347D01*
X384Y1347D01*
X384Y1345D01*
X378Y1345D01*
X378Y1343D01*
X370Y1343D01*
X370Y1341D01*
X574Y1341D01*
X574Y1345D01*
X572Y1345D01*
X572Y1349D01*
X570Y1349D01*
X570Y1357D01*
X568Y1357D01*
X568Y1367D01*
X570Y1367D01*
X570Y1375D01*
X572Y1375D01*
X572Y1379D01*
X574Y1379D01*
X574Y1383D01*
X576Y1383D01*
X576Y1387D01*
X578Y1387D01*
X578Y1389D01*
X580Y1389D01*
X580Y1391D01*
X582Y1391D01*
X582Y1393D01*
X584Y1393D01*
X584Y1395D01*
X586Y1395D01*
X586Y1397D01*
X588Y1397D01*
X588Y1399D01*
X592Y1399D01*
X592Y1401D01*
X596Y1401D01*
X596Y1423D01*
X592Y1423D01*
X592Y1425D01*
X588Y1425D01*
X588Y1427D01*
X586Y1427D01*
X586Y1429D01*
X584Y1429D01*
X584Y1431D01*
X582Y1431D01*
X582Y1433D01*
X580Y1433D01*
X580Y1435D01*
X578Y1435D01*
X578Y1437D01*
X576Y1437D01*
X576Y1441D01*
X574Y1441D01*
X574Y1445D01*
X572Y1445D01*
X572Y1449D01*
X570Y1449D01*
X570Y1457D01*
X568Y1457D01*
X568Y1467D01*
X570Y1467D01*
X570Y1475D01*
X572Y1475D01*
X572Y1479D01*
X574Y1479D01*
X574Y1483D01*
X576Y1483D01*
X576Y1487D01*
X578Y1487D01*
X578Y1489D01*
X580Y1489D01*
X580Y1491D01*
X582Y1491D01*
X582Y1493D01*
X584Y1493D01*
X584Y1495D01*
X586Y1495D01*
X586Y1497D01*
X588Y1497D01*
X588Y1505D01*
X40Y1505D01*
G37*
D02*
G36*
X40Y1433D02*
X40Y1423D01*
X168Y1423D01*
X168Y1421D01*
X180Y1421D01*
X180Y1419D01*
X184Y1419D01*
X184Y1417D01*
X188Y1417D01*
X188Y1415D01*
X192Y1415D01*
X192Y1413D01*
X194Y1413D01*
X194Y1411D01*
X196Y1411D01*
X196Y1409D01*
X198Y1409D01*
X198Y1407D01*
X200Y1407D01*
X200Y1405D01*
X202Y1405D01*
X202Y1401D01*
X204Y1401D01*
X204Y1397D01*
X206Y1397D01*
X206Y1393D01*
X208Y1393D01*
X208Y1381D01*
X210Y1381D01*
X210Y1371D01*
X208Y1371D01*
X208Y1361D01*
X206Y1361D01*
X206Y1355D01*
X204Y1355D01*
X204Y1351D01*
X202Y1351D01*
X202Y1347D01*
X200Y1347D01*
X200Y1345D01*
X198Y1345D01*
X198Y1343D01*
X196Y1343D01*
X196Y1341D01*
X354Y1341D01*
X354Y1343D01*
X344Y1343D01*
X344Y1345D01*
X340Y1345D01*
X340Y1347D01*
X336Y1347D01*
X336Y1349D01*
X332Y1349D01*
X332Y1351D01*
X330Y1351D01*
X330Y1353D01*
X328Y1353D01*
X328Y1355D01*
X326Y1355D01*
X326Y1357D01*
X324Y1357D01*
X324Y1359D01*
X322Y1359D01*
X322Y1363D01*
X320Y1363D01*
X320Y1369D01*
X318Y1369D01*
X318Y1375D01*
X316Y1375D01*
X316Y1399D01*
X318Y1399D01*
X318Y1407D01*
X320Y1407D01*
X320Y1411D01*
X322Y1411D01*
X322Y1415D01*
X324Y1415D01*
X324Y1417D01*
X326Y1417D01*
X326Y1419D01*
X328Y1419D01*
X328Y1421D01*
X330Y1421D01*
X330Y1423D01*
X332Y1423D01*
X332Y1425D01*
X334Y1425D01*
X334Y1427D01*
X338Y1427D01*
X338Y1429D01*
X342Y1429D01*
X342Y1431D01*
X350Y1431D01*
X350Y1433D01*
X40Y1433D01*
G37*
D02*
G36*
X40Y1423D02*
X40Y1331D01*
X150Y1331D01*
X150Y1333D01*
X144Y1333D01*
X144Y1335D01*
X140Y1335D01*
X140Y1337D01*
X136Y1337D01*
X136Y1339D01*
X132Y1339D01*
X132Y1341D01*
X130Y1341D01*
X130Y1343D01*
X128Y1343D01*
X128Y1345D01*
X126Y1345D01*
X126Y1349D01*
X124Y1349D01*
X124Y1353D01*
X122Y1353D01*
X122Y1357D01*
X120Y1357D01*
X120Y1363D01*
X118Y1363D01*
X118Y1389D01*
X120Y1389D01*
X120Y1395D01*
X122Y1395D01*
X122Y1401D01*
X124Y1401D01*
X124Y1403D01*
X126Y1403D01*
X126Y1407D01*
X128Y1407D01*
X128Y1409D01*
X130Y1409D01*
X130Y1411D01*
X132Y1411D01*
X132Y1413D01*
X134Y1413D01*
X134Y1415D01*
X138Y1415D01*
X138Y1417D01*
X142Y1417D01*
X142Y1419D01*
X148Y1419D01*
X148Y1421D01*
X158Y1421D01*
X158Y1423D01*
X40Y1423D01*
G37*
D02*
G36*
X194Y1341D02*
X194Y1339D01*
X576Y1339D01*
X576Y1341D01*
X194Y1341D01*
G37*
D02*
G36*
X194Y1341D02*
X194Y1339D01*
X576Y1339D01*
X576Y1341D01*
X194Y1341D01*
G37*
D02*
G36*
X192Y1339D02*
X192Y1337D01*
X188Y1337D01*
X188Y1335D01*
X184Y1335D01*
X184Y1333D01*
X176Y1333D01*
X176Y1331D01*
X582Y1331D01*
X582Y1333D01*
X580Y1333D01*
X580Y1335D01*
X578Y1335D01*
X578Y1337D01*
X576Y1337D01*
X576Y1339D01*
X192Y1339D01*
G37*
D02*
G36*
X40Y1331D02*
X40Y1329D01*
X584Y1329D01*
X584Y1331D01*
X40Y1331D01*
G37*
D02*
G36*
X40Y1331D02*
X40Y1329D01*
X584Y1329D01*
X584Y1331D01*
X40Y1331D01*
G37*
D02*
G36*
X40Y1329D02*
X40Y1293D01*
X488Y1293D01*
X488Y1291D01*
X494Y1291D01*
X494Y1289D01*
X500Y1289D01*
X500Y1287D01*
X504Y1287D01*
X504Y1285D01*
X506Y1285D01*
X506Y1283D01*
X510Y1283D01*
X510Y1281D01*
X512Y1281D01*
X512Y1279D01*
X514Y1279D01*
X514Y1277D01*
X516Y1277D01*
X516Y1275D01*
X518Y1275D01*
X518Y1273D01*
X520Y1273D01*
X520Y1271D01*
X522Y1271D01*
X522Y1267D01*
X524Y1267D01*
X524Y1263D01*
X526Y1263D01*
X526Y1259D01*
X528Y1259D01*
X528Y1253D01*
X530Y1253D01*
X530Y1237D01*
X528Y1237D01*
X528Y1231D01*
X526Y1231D01*
X526Y1227D01*
X524Y1227D01*
X524Y1223D01*
X522Y1223D01*
X522Y1219D01*
X520Y1219D01*
X520Y1217D01*
X518Y1217D01*
X518Y1215D01*
X516Y1215D01*
X516Y1213D01*
X514Y1213D01*
X514Y1211D01*
X512Y1211D01*
X512Y1209D01*
X510Y1209D01*
X510Y1207D01*
X508Y1207D01*
X508Y1205D01*
X504Y1205D01*
X504Y1203D01*
X500Y1203D01*
X500Y1201D01*
X496Y1201D01*
X496Y1199D01*
X488Y1199D01*
X488Y1197D01*
X588Y1197D01*
X588Y1199D01*
X592Y1199D01*
X592Y1201D01*
X596Y1201D01*
X596Y1223D01*
X592Y1223D01*
X592Y1225D01*
X588Y1225D01*
X588Y1227D01*
X586Y1227D01*
X586Y1229D01*
X584Y1229D01*
X584Y1231D01*
X582Y1231D01*
X582Y1233D01*
X580Y1233D01*
X580Y1235D01*
X578Y1235D01*
X578Y1237D01*
X576Y1237D01*
X576Y1241D01*
X574Y1241D01*
X574Y1245D01*
X572Y1245D01*
X572Y1249D01*
X570Y1249D01*
X570Y1257D01*
X568Y1257D01*
X568Y1267D01*
X570Y1267D01*
X570Y1275D01*
X572Y1275D01*
X572Y1279D01*
X574Y1279D01*
X574Y1283D01*
X576Y1283D01*
X576Y1287D01*
X578Y1287D01*
X578Y1289D01*
X580Y1289D01*
X580Y1291D01*
X582Y1291D01*
X582Y1293D01*
X584Y1293D01*
X584Y1295D01*
X586Y1295D01*
X586Y1297D01*
X588Y1297D01*
X588Y1299D01*
X592Y1299D01*
X592Y1301D01*
X596Y1301D01*
X596Y1323D01*
X592Y1323D01*
X592Y1325D01*
X588Y1325D01*
X588Y1327D01*
X586Y1327D01*
X586Y1329D01*
X40Y1329D01*
G37*
D02*
G36*
X40Y1293D02*
X40Y1203D01*
X82Y1203D01*
X82Y1201D01*
X92Y1201D01*
X92Y1199D01*
X98Y1199D01*
X98Y1197D01*
X476Y1197D01*
X476Y1199D01*
X470Y1199D01*
X470Y1201D01*
X464Y1201D01*
X464Y1203D01*
X460Y1203D01*
X460Y1205D01*
X458Y1205D01*
X458Y1207D01*
X454Y1207D01*
X454Y1209D01*
X452Y1209D01*
X452Y1211D01*
X450Y1211D01*
X450Y1213D01*
X448Y1213D01*
X448Y1215D01*
X446Y1215D01*
X446Y1217D01*
X444Y1217D01*
X444Y1221D01*
X442Y1221D01*
X442Y1223D01*
X440Y1223D01*
X440Y1227D01*
X438Y1227D01*
X438Y1233D01*
X436Y1233D01*
X436Y1241D01*
X434Y1241D01*
X434Y1249D01*
X436Y1249D01*
X436Y1257D01*
X438Y1257D01*
X438Y1263D01*
X440Y1263D01*
X440Y1265D01*
X442Y1265D01*
X442Y1269D01*
X444Y1269D01*
X444Y1271D01*
X446Y1271D01*
X446Y1275D01*
X448Y1275D01*
X448Y1277D01*
X450Y1277D01*
X450Y1279D01*
X452Y1279D01*
X452Y1281D01*
X456Y1281D01*
X456Y1283D01*
X458Y1283D01*
X458Y1285D01*
X462Y1285D01*
X462Y1287D01*
X464Y1287D01*
X464Y1289D01*
X470Y1289D01*
X470Y1291D01*
X478Y1291D01*
X478Y1293D01*
X40Y1293D01*
G37*
D02*
G36*
X40Y1203D02*
X40Y1195D01*
X60Y1195D01*
X60Y1197D01*
X62Y1197D01*
X62Y1199D01*
X68Y1199D01*
X68Y1201D01*
X78Y1201D01*
X78Y1203D01*
X40Y1203D01*
G37*
D02*
G36*
X100Y1197D02*
X100Y1195D01*
X586Y1195D01*
X586Y1197D01*
X100Y1197D01*
G37*
D02*
G36*
X100Y1197D02*
X100Y1195D01*
X586Y1195D01*
X586Y1197D01*
X100Y1197D01*
G37*
D02*
G36*
X104Y1195D02*
X104Y1193D01*
X106Y1193D01*
X106Y1191D01*
X110Y1191D01*
X110Y1189D01*
X112Y1189D01*
X112Y1187D01*
X114Y1187D01*
X114Y1185D01*
X116Y1185D01*
X116Y1181D01*
X118Y1181D01*
X118Y1179D01*
X120Y1179D01*
X120Y1177D01*
X122Y1177D01*
X122Y1173D01*
X124Y1173D01*
X124Y1167D01*
X126Y1167D01*
X126Y1161D01*
X128Y1161D01*
X128Y1149D01*
X126Y1149D01*
X126Y1141D01*
X124Y1141D01*
X124Y1139D01*
X458Y1139D01*
X458Y1137D01*
X466Y1137D01*
X466Y1135D01*
X470Y1135D01*
X470Y1133D01*
X474Y1133D01*
X474Y1131D01*
X476Y1131D01*
X476Y1129D01*
X478Y1129D01*
X478Y1127D01*
X480Y1127D01*
X480Y1125D01*
X482Y1125D01*
X482Y1123D01*
X484Y1123D01*
X484Y1121D01*
X486Y1121D01*
X486Y1117D01*
X488Y1117D01*
X488Y1113D01*
X490Y1113D01*
X490Y1105D01*
X492Y1105D01*
X492Y1083D01*
X490Y1083D01*
X490Y1075D01*
X488Y1075D01*
X488Y1071D01*
X486Y1071D01*
X486Y1067D01*
X484Y1067D01*
X484Y1063D01*
X482Y1063D01*
X482Y1061D01*
X480Y1061D01*
X480Y1059D01*
X478Y1059D01*
X478Y1057D01*
X476Y1057D01*
X476Y1055D01*
X472Y1055D01*
X472Y1053D01*
X468Y1053D01*
X468Y1051D01*
X462Y1051D01*
X462Y1049D01*
X452Y1049D01*
X452Y1047D01*
X572Y1047D01*
X572Y1049D01*
X570Y1049D01*
X570Y1057D01*
X568Y1057D01*
X568Y1067D01*
X570Y1067D01*
X570Y1075D01*
X572Y1075D01*
X572Y1079D01*
X574Y1079D01*
X574Y1083D01*
X576Y1083D01*
X576Y1087D01*
X578Y1087D01*
X578Y1089D01*
X580Y1089D01*
X580Y1091D01*
X582Y1091D01*
X582Y1093D01*
X584Y1093D01*
X584Y1095D01*
X586Y1095D01*
X586Y1097D01*
X588Y1097D01*
X588Y1099D01*
X592Y1099D01*
X592Y1101D01*
X596Y1101D01*
X596Y1123D01*
X592Y1123D01*
X592Y1125D01*
X588Y1125D01*
X588Y1127D01*
X586Y1127D01*
X586Y1129D01*
X584Y1129D01*
X584Y1131D01*
X582Y1131D01*
X582Y1133D01*
X580Y1133D01*
X580Y1135D01*
X578Y1135D01*
X578Y1137D01*
X576Y1137D01*
X576Y1141D01*
X574Y1141D01*
X574Y1145D01*
X572Y1145D01*
X572Y1149D01*
X570Y1149D01*
X570Y1157D01*
X568Y1157D01*
X568Y1167D01*
X570Y1167D01*
X570Y1175D01*
X572Y1175D01*
X572Y1179D01*
X574Y1179D01*
X574Y1183D01*
X576Y1183D01*
X576Y1187D01*
X578Y1187D01*
X578Y1189D01*
X580Y1189D01*
X580Y1191D01*
X582Y1191D01*
X582Y1193D01*
X584Y1193D01*
X584Y1195D01*
X104Y1195D01*
G37*
D02*
G36*
X124Y1139D02*
X124Y1137D01*
X122Y1137D01*
X122Y1133D01*
X120Y1133D01*
X120Y1129D01*
X118Y1129D01*
X118Y1127D01*
X116Y1127D01*
X116Y1125D01*
X114Y1125D01*
X114Y1123D01*
X112Y1123D01*
X112Y1121D01*
X110Y1121D01*
X110Y1119D01*
X108Y1119D01*
X108Y1117D01*
X106Y1117D01*
X106Y1115D01*
X102Y1115D01*
X102Y1113D01*
X98Y1113D01*
X98Y1111D01*
X94Y1111D01*
X94Y1109D01*
X88Y1109D01*
X88Y1107D01*
X402Y1107D01*
X402Y1111D01*
X404Y1111D01*
X404Y1115D01*
X406Y1115D01*
X406Y1119D01*
X408Y1119D01*
X408Y1123D01*
X410Y1123D01*
X410Y1125D01*
X412Y1125D01*
X412Y1127D01*
X414Y1127D01*
X414Y1129D01*
X416Y1129D01*
X416Y1131D01*
X418Y1131D01*
X418Y1133D01*
X422Y1133D01*
X422Y1135D01*
X426Y1135D01*
X426Y1137D01*
X434Y1137D01*
X434Y1139D01*
X124Y1139D01*
G37*
D02*
G36*
X40Y1113D02*
X40Y1107D01*
X72Y1107D01*
X72Y1109D01*
X66Y1109D01*
X66Y1111D01*
X62Y1111D01*
X62Y1113D01*
X40Y1113D01*
G37*
D02*
G36*
X40Y1107D02*
X40Y1105D01*
X402Y1105D01*
X402Y1107D01*
X40Y1107D01*
G37*
D02*
G36*
X40Y1107D02*
X40Y1105D01*
X402Y1105D01*
X402Y1107D01*
X40Y1107D01*
G37*
D02*
G36*
X40Y1105D02*
X40Y1099D01*
X294Y1099D01*
X294Y1047D01*
X440Y1047D01*
X440Y1049D01*
X430Y1049D01*
X430Y1051D01*
X424Y1051D01*
X424Y1053D01*
X420Y1053D01*
X420Y1055D01*
X418Y1055D01*
X418Y1057D01*
X414Y1057D01*
X414Y1059D01*
X412Y1059D01*
X412Y1061D01*
X410Y1061D01*
X410Y1065D01*
X408Y1065D01*
X408Y1067D01*
X406Y1067D01*
X406Y1071D01*
X404Y1071D01*
X404Y1077D01*
X402Y1077D01*
X402Y1085D01*
X400Y1085D01*
X400Y1103D01*
X402Y1103D01*
X402Y1105D01*
X40Y1105D01*
G37*
D02*
G36*
X40Y1099D02*
X40Y1005D01*
X136Y1005D01*
X136Y1007D01*
X130Y1007D01*
X130Y1009D01*
X126Y1009D01*
X126Y1011D01*
X122Y1011D01*
X122Y1013D01*
X120Y1013D01*
X120Y1015D01*
X118Y1015D01*
X118Y1017D01*
X116Y1017D01*
X116Y1019D01*
X112Y1019D01*
X112Y1023D01*
X110Y1023D01*
X110Y1025D01*
X108Y1025D01*
X108Y1027D01*
X106Y1027D01*
X106Y1031D01*
X104Y1031D01*
X104Y1033D01*
X102Y1033D01*
X102Y1039D01*
X100Y1039D01*
X100Y1047D01*
X98Y1047D01*
X98Y1057D01*
X100Y1057D01*
X100Y1065D01*
X102Y1065D01*
X102Y1069D01*
X104Y1069D01*
X104Y1073D01*
X106Y1073D01*
X106Y1077D01*
X108Y1077D01*
X108Y1079D01*
X110Y1079D01*
X110Y1081D01*
X112Y1081D01*
X112Y1083D01*
X114Y1083D01*
X114Y1085D01*
X116Y1085D01*
X116Y1087D01*
X118Y1087D01*
X118Y1089D01*
X120Y1089D01*
X120Y1091D01*
X124Y1091D01*
X124Y1093D01*
X126Y1093D01*
X126Y1095D01*
X130Y1095D01*
X130Y1097D01*
X136Y1097D01*
X136Y1099D01*
X40Y1099D01*
G37*
D02*
G36*
X156Y1099D02*
X156Y1097D01*
X162Y1097D01*
X162Y1095D01*
X166Y1095D01*
X166Y1093D01*
X168Y1093D01*
X168Y1091D01*
X172Y1091D01*
X172Y1089D01*
X174Y1089D01*
X174Y1087D01*
X176Y1087D01*
X176Y1085D01*
X178Y1085D01*
X178Y1083D01*
X198Y1083D01*
X198Y1099D01*
X156Y1099D01*
G37*
D02*
G36*
X294Y1047D02*
X294Y1045D01*
X572Y1045D01*
X572Y1047D01*
X294Y1047D01*
G37*
D02*
G36*
X294Y1047D02*
X294Y1045D01*
X572Y1045D01*
X572Y1047D01*
X294Y1047D01*
G37*
D02*
G36*
X294Y1045D02*
X294Y1005D01*
X596Y1005D01*
X596Y1023D01*
X592Y1023D01*
X592Y1025D01*
X588Y1025D01*
X588Y1027D01*
X586Y1027D01*
X586Y1029D01*
X584Y1029D01*
X584Y1031D01*
X582Y1031D01*
X582Y1033D01*
X580Y1033D01*
X580Y1035D01*
X578Y1035D01*
X578Y1037D01*
X576Y1037D01*
X576Y1041D01*
X574Y1041D01*
X574Y1045D01*
X294Y1045D01*
G37*
D02*
G36*
X176Y1019D02*
X176Y1017D01*
X174Y1017D01*
X174Y1015D01*
X172Y1015D01*
X172Y1013D01*
X170Y1013D01*
X170Y1011D01*
X166Y1011D01*
X166Y1009D01*
X162Y1009D01*
X162Y1007D01*
X156Y1007D01*
X156Y1005D01*
X198Y1005D01*
X198Y1019D01*
X176Y1019D01*
G37*
D02*
G36*
X40Y1005D02*
X40Y1003D01*
X596Y1003D01*
X596Y1005D01*
X40Y1005D01*
G37*
D02*
G36*
X40Y1005D02*
X40Y1003D01*
X596Y1003D01*
X596Y1005D01*
X40Y1005D01*
G37*
D02*
G36*
X40Y1005D02*
X40Y1003D01*
X596Y1003D01*
X596Y1005D01*
X40Y1005D01*
G37*
D02*
G36*
X40Y1003D02*
X40Y879D01*
X472Y879D01*
X472Y877D01*
X480Y877D01*
X480Y875D01*
X484Y875D01*
X484Y873D01*
X488Y873D01*
X488Y871D01*
X492Y871D01*
X492Y869D01*
X494Y869D01*
X494Y867D01*
X496Y867D01*
X496Y865D01*
X498Y865D01*
X498Y863D01*
X500Y863D01*
X500Y861D01*
X502Y861D01*
X502Y859D01*
X504Y859D01*
X504Y857D01*
X506Y857D01*
X506Y853D01*
X508Y853D01*
X508Y849D01*
X510Y849D01*
X510Y845D01*
X512Y845D01*
X512Y839D01*
X514Y839D01*
X514Y823D01*
X512Y823D01*
X512Y817D01*
X510Y817D01*
X510Y813D01*
X508Y813D01*
X508Y809D01*
X506Y809D01*
X506Y805D01*
X504Y805D01*
X504Y803D01*
X502Y803D01*
X502Y801D01*
X500Y801D01*
X500Y799D01*
X498Y799D01*
X498Y797D01*
X496Y797D01*
X496Y795D01*
X494Y795D01*
X494Y793D01*
X492Y793D01*
X492Y791D01*
X490Y791D01*
X490Y771D01*
X492Y771D01*
X492Y769D01*
X494Y769D01*
X494Y767D01*
X498Y767D01*
X498Y765D01*
X500Y765D01*
X500Y763D01*
X502Y763D01*
X502Y759D01*
X504Y759D01*
X504Y757D01*
X506Y757D01*
X506Y755D01*
X508Y755D01*
X508Y751D01*
X510Y751D01*
X510Y745D01*
X512Y745D01*
X512Y739D01*
X514Y739D01*
X514Y725D01*
X512Y725D01*
X512Y719D01*
X510Y719D01*
X510Y713D01*
X508Y713D01*
X508Y709D01*
X506Y709D01*
X506Y707D01*
X504Y707D01*
X504Y705D01*
X502Y705D01*
X502Y701D01*
X500Y701D01*
X500Y699D01*
X498Y699D01*
X498Y697D01*
X494Y697D01*
X494Y695D01*
X492Y695D01*
X492Y693D01*
X490Y693D01*
X490Y691D01*
X488Y691D01*
X488Y671D01*
X490Y671D01*
X490Y669D01*
X494Y669D01*
X494Y667D01*
X496Y667D01*
X496Y665D01*
X498Y665D01*
X498Y663D01*
X500Y663D01*
X500Y661D01*
X502Y661D01*
X502Y659D01*
X504Y659D01*
X504Y657D01*
X506Y657D01*
X506Y653D01*
X508Y653D01*
X508Y649D01*
X510Y649D01*
X510Y645D01*
X512Y645D01*
X512Y639D01*
X514Y639D01*
X514Y623D01*
X512Y623D01*
X512Y617D01*
X510Y617D01*
X510Y613D01*
X508Y613D01*
X508Y609D01*
X506Y609D01*
X506Y605D01*
X504Y605D01*
X504Y603D01*
X502Y603D01*
X502Y601D01*
X500Y601D01*
X500Y599D01*
X498Y599D01*
X498Y597D01*
X496Y597D01*
X496Y595D01*
X494Y595D01*
X494Y593D01*
X492Y593D01*
X492Y591D01*
X488Y591D01*
X488Y589D01*
X484Y589D01*
X484Y587D01*
X480Y587D01*
X480Y567D01*
X482Y567D01*
X482Y565D01*
X486Y565D01*
X486Y563D01*
X490Y563D01*
X490Y561D01*
X492Y561D01*
X492Y559D01*
X494Y559D01*
X494Y557D01*
X498Y557D01*
X498Y555D01*
X500Y555D01*
X500Y553D01*
X502Y553D01*
X502Y549D01*
X504Y549D01*
X504Y547D01*
X506Y547D01*
X506Y543D01*
X508Y543D01*
X508Y541D01*
X510Y541D01*
X510Y535D01*
X512Y535D01*
X512Y529D01*
X514Y529D01*
X514Y513D01*
X512Y513D01*
X512Y507D01*
X510Y507D01*
X510Y503D01*
X508Y503D01*
X508Y499D01*
X506Y499D01*
X506Y497D01*
X504Y497D01*
X504Y495D01*
X502Y495D01*
X502Y491D01*
X500Y491D01*
X500Y489D01*
X498Y489D01*
X498Y487D01*
X496Y487D01*
X496Y485D01*
X492Y485D01*
X492Y483D01*
X490Y483D01*
X490Y481D01*
X486Y481D01*
X486Y479D01*
X482Y479D01*
X482Y477D01*
X476Y477D01*
X476Y475D01*
X572Y475D01*
X572Y479D01*
X574Y479D01*
X574Y483D01*
X576Y483D01*
X576Y487D01*
X578Y487D01*
X578Y489D01*
X580Y489D01*
X580Y491D01*
X582Y491D01*
X582Y493D01*
X584Y493D01*
X584Y495D01*
X586Y495D01*
X586Y497D01*
X588Y497D01*
X588Y499D01*
X592Y499D01*
X592Y501D01*
X596Y501D01*
X596Y523D01*
X592Y523D01*
X592Y525D01*
X588Y525D01*
X588Y527D01*
X586Y527D01*
X586Y529D01*
X584Y529D01*
X584Y531D01*
X582Y531D01*
X582Y533D01*
X580Y533D01*
X580Y535D01*
X578Y535D01*
X578Y537D01*
X576Y537D01*
X576Y541D01*
X574Y541D01*
X574Y545D01*
X572Y545D01*
X572Y549D01*
X570Y549D01*
X570Y557D01*
X568Y557D01*
X568Y567D01*
X570Y567D01*
X570Y575D01*
X572Y575D01*
X572Y579D01*
X574Y579D01*
X574Y583D01*
X576Y583D01*
X576Y587D01*
X578Y587D01*
X578Y589D01*
X580Y589D01*
X580Y591D01*
X582Y591D01*
X582Y593D01*
X584Y593D01*
X584Y595D01*
X586Y595D01*
X586Y597D01*
X588Y597D01*
X588Y599D01*
X592Y599D01*
X592Y601D01*
X596Y601D01*
X596Y623D01*
X592Y623D01*
X592Y625D01*
X588Y625D01*
X588Y627D01*
X586Y627D01*
X586Y629D01*
X584Y629D01*
X584Y631D01*
X582Y631D01*
X582Y633D01*
X580Y633D01*
X580Y635D01*
X578Y635D01*
X578Y637D01*
X576Y637D01*
X576Y641D01*
X574Y641D01*
X574Y645D01*
X572Y645D01*
X572Y649D01*
X570Y649D01*
X570Y657D01*
X568Y657D01*
X568Y667D01*
X570Y667D01*
X570Y675D01*
X572Y675D01*
X572Y679D01*
X574Y679D01*
X574Y683D01*
X576Y683D01*
X576Y687D01*
X578Y687D01*
X578Y689D01*
X580Y689D01*
X580Y691D01*
X582Y691D01*
X582Y693D01*
X584Y693D01*
X584Y695D01*
X586Y695D01*
X586Y697D01*
X588Y697D01*
X588Y699D01*
X592Y699D01*
X592Y701D01*
X596Y701D01*
X596Y723D01*
X592Y723D01*
X592Y725D01*
X588Y725D01*
X588Y727D01*
X586Y727D01*
X586Y729D01*
X584Y729D01*
X584Y731D01*
X582Y731D01*
X582Y733D01*
X580Y733D01*
X580Y735D01*
X578Y735D01*
X578Y737D01*
X576Y737D01*
X576Y741D01*
X574Y741D01*
X574Y745D01*
X572Y745D01*
X572Y749D01*
X570Y749D01*
X570Y757D01*
X568Y757D01*
X568Y767D01*
X570Y767D01*
X570Y775D01*
X572Y775D01*
X572Y779D01*
X574Y779D01*
X574Y783D01*
X576Y783D01*
X576Y787D01*
X578Y787D01*
X578Y789D01*
X580Y789D01*
X580Y791D01*
X582Y791D01*
X582Y793D01*
X584Y793D01*
X584Y795D01*
X586Y795D01*
X586Y797D01*
X588Y797D01*
X588Y799D01*
X592Y799D01*
X592Y801D01*
X596Y801D01*
X596Y823D01*
X592Y823D01*
X592Y825D01*
X588Y825D01*
X588Y827D01*
X586Y827D01*
X586Y829D01*
X584Y829D01*
X584Y831D01*
X582Y831D01*
X582Y833D01*
X580Y833D01*
X580Y835D01*
X578Y835D01*
X578Y837D01*
X576Y837D01*
X576Y841D01*
X574Y841D01*
X574Y845D01*
X572Y845D01*
X572Y849D01*
X570Y849D01*
X570Y857D01*
X568Y857D01*
X568Y867D01*
X570Y867D01*
X570Y875D01*
X572Y875D01*
X572Y879D01*
X574Y879D01*
X574Y883D01*
X576Y883D01*
X576Y887D01*
X578Y887D01*
X578Y889D01*
X580Y889D01*
X580Y891D01*
X582Y891D01*
X582Y893D01*
X584Y893D01*
X584Y895D01*
X586Y895D01*
X586Y897D01*
X588Y897D01*
X588Y899D01*
X592Y899D01*
X592Y901D01*
X596Y901D01*
X596Y923D01*
X592Y923D01*
X592Y925D01*
X588Y925D01*
X588Y927D01*
X586Y927D01*
X586Y929D01*
X584Y929D01*
X584Y931D01*
X582Y931D01*
X582Y933D01*
X580Y933D01*
X580Y935D01*
X578Y935D01*
X578Y937D01*
X576Y937D01*
X576Y941D01*
X574Y941D01*
X574Y945D01*
X572Y945D01*
X572Y949D01*
X570Y949D01*
X570Y957D01*
X568Y957D01*
X568Y967D01*
X570Y967D01*
X570Y975D01*
X572Y975D01*
X572Y979D01*
X574Y979D01*
X574Y983D01*
X576Y983D01*
X576Y987D01*
X578Y987D01*
X578Y989D01*
X580Y989D01*
X580Y991D01*
X582Y991D01*
X582Y993D01*
X584Y993D01*
X584Y995D01*
X586Y995D01*
X586Y997D01*
X588Y997D01*
X588Y999D01*
X592Y999D01*
X592Y1001D01*
X596Y1001D01*
X596Y1003D01*
X40Y1003D01*
G37*
D02*
G36*
X40Y879D02*
X40Y877D01*
X60Y877D01*
X60Y879D01*
X40Y879D01*
G37*
D02*
G36*
X72Y879D02*
X72Y877D01*
X80Y877D01*
X80Y875D01*
X84Y875D01*
X84Y873D01*
X88Y873D01*
X88Y871D01*
X92Y871D01*
X92Y869D01*
X94Y869D01*
X94Y867D01*
X96Y867D01*
X96Y865D01*
X98Y865D01*
X98Y863D01*
X100Y863D01*
X100Y861D01*
X102Y861D01*
X102Y859D01*
X104Y859D01*
X104Y857D01*
X106Y857D01*
X106Y853D01*
X108Y853D01*
X108Y849D01*
X110Y849D01*
X110Y845D01*
X112Y845D01*
X112Y839D01*
X114Y839D01*
X114Y823D01*
X112Y823D01*
X112Y817D01*
X110Y817D01*
X110Y813D01*
X108Y813D01*
X108Y809D01*
X106Y809D01*
X106Y805D01*
X104Y805D01*
X104Y803D01*
X102Y803D01*
X102Y801D01*
X100Y801D01*
X100Y799D01*
X98Y799D01*
X98Y797D01*
X96Y797D01*
X96Y795D01*
X94Y795D01*
X94Y793D01*
X92Y793D01*
X92Y791D01*
X90Y791D01*
X90Y771D01*
X92Y771D01*
X92Y769D01*
X94Y769D01*
X94Y767D01*
X98Y767D01*
X98Y765D01*
X100Y765D01*
X100Y763D01*
X102Y763D01*
X102Y759D01*
X104Y759D01*
X104Y757D01*
X106Y757D01*
X106Y755D01*
X108Y755D01*
X108Y751D01*
X110Y751D01*
X110Y745D01*
X112Y745D01*
X112Y739D01*
X114Y739D01*
X114Y725D01*
X112Y725D01*
X112Y719D01*
X110Y719D01*
X110Y713D01*
X108Y713D01*
X108Y709D01*
X106Y709D01*
X106Y707D01*
X104Y707D01*
X104Y705D01*
X102Y705D01*
X102Y701D01*
X100Y701D01*
X100Y699D01*
X98Y699D01*
X98Y697D01*
X94Y697D01*
X94Y695D01*
X92Y695D01*
X92Y693D01*
X90Y693D01*
X90Y691D01*
X88Y691D01*
X88Y671D01*
X90Y671D01*
X90Y669D01*
X94Y669D01*
X94Y667D01*
X96Y667D01*
X96Y665D01*
X98Y665D01*
X98Y663D01*
X100Y663D01*
X100Y661D01*
X102Y661D01*
X102Y659D01*
X104Y659D01*
X104Y657D01*
X106Y657D01*
X106Y653D01*
X108Y653D01*
X108Y649D01*
X110Y649D01*
X110Y645D01*
X112Y645D01*
X112Y639D01*
X114Y639D01*
X114Y623D01*
X112Y623D01*
X112Y617D01*
X110Y617D01*
X110Y613D01*
X108Y613D01*
X108Y609D01*
X106Y609D01*
X106Y605D01*
X104Y605D01*
X104Y603D01*
X102Y603D01*
X102Y601D01*
X100Y601D01*
X100Y599D01*
X98Y599D01*
X98Y597D01*
X96Y597D01*
X96Y595D01*
X94Y595D01*
X94Y593D01*
X92Y593D01*
X92Y591D01*
X88Y591D01*
X88Y589D01*
X84Y589D01*
X84Y587D01*
X80Y587D01*
X80Y567D01*
X82Y567D01*
X82Y565D01*
X86Y565D01*
X86Y563D01*
X90Y563D01*
X90Y561D01*
X92Y561D01*
X92Y559D01*
X94Y559D01*
X94Y557D01*
X98Y557D01*
X98Y555D01*
X100Y555D01*
X100Y553D01*
X102Y553D01*
X102Y549D01*
X104Y549D01*
X104Y547D01*
X106Y547D01*
X106Y543D01*
X108Y543D01*
X108Y541D01*
X110Y541D01*
X110Y535D01*
X112Y535D01*
X112Y529D01*
X114Y529D01*
X114Y513D01*
X112Y513D01*
X112Y507D01*
X110Y507D01*
X110Y503D01*
X108Y503D01*
X108Y499D01*
X106Y499D01*
X106Y497D01*
X104Y497D01*
X104Y495D01*
X102Y495D01*
X102Y491D01*
X100Y491D01*
X100Y489D01*
X98Y489D01*
X98Y487D01*
X96Y487D01*
X96Y485D01*
X92Y485D01*
X92Y483D01*
X90Y483D01*
X90Y481D01*
X86Y481D01*
X86Y479D01*
X82Y479D01*
X82Y477D01*
X76Y477D01*
X76Y475D01*
X456Y475D01*
X456Y477D01*
X450Y477D01*
X450Y479D01*
X446Y479D01*
X446Y481D01*
X444Y481D01*
X444Y483D01*
X440Y483D01*
X440Y485D01*
X438Y485D01*
X438Y487D01*
X436Y487D01*
X436Y489D01*
X434Y489D01*
X434Y491D01*
X432Y491D01*
X432Y493D01*
X430Y493D01*
X430Y495D01*
X428Y495D01*
X428Y497D01*
X426Y497D01*
X426Y501D01*
X424Y501D01*
X424Y505D01*
X422Y505D01*
X422Y511D01*
X420Y511D01*
X420Y521D01*
X418Y521D01*
X418Y523D01*
X420Y523D01*
X420Y533D01*
X422Y533D01*
X422Y539D01*
X424Y539D01*
X424Y543D01*
X426Y543D01*
X426Y545D01*
X428Y545D01*
X428Y549D01*
X430Y549D01*
X430Y551D01*
X432Y551D01*
X432Y553D01*
X434Y553D01*
X434Y555D01*
X436Y555D01*
X436Y557D01*
X438Y557D01*
X438Y559D01*
X440Y559D01*
X440Y561D01*
X444Y561D01*
X444Y563D01*
X448Y563D01*
X448Y565D01*
X452Y565D01*
X452Y567D01*
X454Y567D01*
X454Y587D01*
X448Y587D01*
X448Y589D01*
X444Y589D01*
X444Y591D01*
X442Y591D01*
X442Y593D01*
X438Y593D01*
X438Y595D01*
X436Y595D01*
X436Y597D01*
X434Y597D01*
X434Y599D01*
X432Y599D01*
X432Y601D01*
X430Y601D01*
X430Y603D01*
X428Y603D01*
X428Y607D01*
X426Y607D01*
X426Y611D01*
X424Y611D01*
X424Y613D01*
X422Y613D01*
X422Y619D01*
X420Y619D01*
X420Y629D01*
X418Y629D01*
X418Y633D01*
X420Y633D01*
X420Y643D01*
X422Y643D01*
X422Y647D01*
X424Y647D01*
X424Y651D01*
X426Y651D01*
X426Y655D01*
X428Y655D01*
X428Y657D01*
X430Y657D01*
X430Y659D01*
X432Y659D01*
X432Y663D01*
X434Y663D01*
X434Y665D01*
X436Y665D01*
X436Y667D01*
X440Y667D01*
X440Y669D01*
X442Y669D01*
X442Y671D01*
X446Y671D01*
X446Y691D01*
X444Y691D01*
X444Y693D01*
X440Y693D01*
X440Y695D01*
X438Y695D01*
X438Y697D01*
X436Y697D01*
X436Y699D01*
X434Y699D01*
X434Y701D01*
X432Y701D01*
X432Y703D01*
X430Y703D01*
X430Y705D01*
X428Y705D01*
X428Y707D01*
X426Y707D01*
X426Y711D01*
X424Y711D01*
X424Y715D01*
X422Y715D01*
X422Y721D01*
X420Y721D01*
X420Y731D01*
X418Y731D01*
X418Y733D01*
X420Y733D01*
X420Y743D01*
X422Y743D01*
X422Y749D01*
X424Y749D01*
X424Y753D01*
X426Y753D01*
X426Y757D01*
X428Y757D01*
X428Y759D01*
X430Y759D01*
X430Y761D01*
X432Y761D01*
X432Y763D01*
X434Y763D01*
X434Y765D01*
X436Y765D01*
X436Y767D01*
X438Y767D01*
X438Y769D01*
X440Y769D01*
X440Y771D01*
X444Y771D01*
X444Y791D01*
X442Y791D01*
X442Y793D01*
X440Y793D01*
X440Y795D01*
X436Y795D01*
X436Y797D01*
X434Y797D01*
X434Y799D01*
X432Y799D01*
X432Y801D01*
X430Y801D01*
X430Y805D01*
X428Y805D01*
X428Y807D01*
X426Y807D01*
X426Y811D01*
X424Y811D01*
X424Y813D01*
X422Y813D01*
X422Y819D01*
X420Y819D01*
X420Y829D01*
X418Y829D01*
X418Y833D01*
X420Y833D01*
X420Y843D01*
X422Y843D01*
X422Y849D01*
X424Y849D01*
X424Y851D01*
X426Y851D01*
X426Y855D01*
X428Y855D01*
X428Y857D01*
X430Y857D01*
X430Y861D01*
X432Y861D01*
X432Y863D01*
X434Y863D01*
X434Y865D01*
X436Y865D01*
X436Y867D01*
X440Y867D01*
X440Y869D01*
X442Y869D01*
X442Y871D01*
X444Y871D01*
X444Y873D01*
X448Y873D01*
X448Y875D01*
X454Y875D01*
X454Y877D01*
X460Y877D01*
X460Y879D01*
X72Y879D01*
G37*
D02*
G36*
X40Y475D02*
X40Y473D01*
X570Y473D01*
X570Y475D01*
X40Y475D01*
G37*
D02*
G36*
X40Y475D02*
X40Y473D01*
X570Y473D01*
X570Y475D01*
X40Y475D01*
G37*
D02*
G36*
X40Y473D02*
X40Y419D01*
X68Y419D01*
X68Y417D01*
X78Y417D01*
X78Y415D01*
X84Y415D01*
X84Y413D01*
X86Y413D01*
X86Y411D01*
X90Y411D01*
X90Y409D01*
X92Y409D01*
X92Y407D01*
X96Y407D01*
X96Y405D01*
X98Y405D01*
X98Y403D01*
X100Y403D01*
X100Y401D01*
X102Y401D01*
X102Y399D01*
X104Y399D01*
X104Y395D01*
X106Y395D01*
X106Y393D01*
X108Y393D01*
X108Y389D01*
X110Y389D01*
X110Y385D01*
X112Y385D01*
X112Y379D01*
X114Y379D01*
X114Y359D01*
X112Y359D01*
X112Y353D01*
X110Y353D01*
X110Y349D01*
X108Y349D01*
X108Y345D01*
X106Y345D01*
X106Y343D01*
X104Y343D01*
X104Y341D01*
X102Y341D01*
X102Y337D01*
X100Y337D01*
X100Y335D01*
X98Y335D01*
X98Y333D01*
X96Y333D01*
X96Y331D01*
X92Y331D01*
X92Y329D01*
X90Y329D01*
X90Y307D01*
X92Y307D01*
X92Y305D01*
X94Y305D01*
X94Y303D01*
X98Y303D01*
X98Y301D01*
X100Y301D01*
X100Y299D01*
X102Y299D01*
X102Y295D01*
X104Y295D01*
X104Y293D01*
X106Y293D01*
X106Y291D01*
X108Y291D01*
X108Y287D01*
X110Y287D01*
X110Y283D01*
X112Y283D01*
X112Y277D01*
X114Y277D01*
X114Y257D01*
X112Y257D01*
X112Y251D01*
X110Y251D01*
X110Y247D01*
X108Y247D01*
X108Y243D01*
X106Y243D01*
X106Y239D01*
X104Y239D01*
X104Y237D01*
X102Y237D01*
X102Y235D01*
X100Y235D01*
X100Y233D01*
X98Y233D01*
X98Y231D01*
X96Y231D01*
X96Y229D01*
X94Y229D01*
X94Y227D01*
X90Y227D01*
X90Y205D01*
X94Y205D01*
X94Y203D01*
X96Y203D01*
X96Y201D01*
X98Y201D01*
X98Y199D01*
X100Y199D01*
X100Y197D01*
X102Y197D01*
X102Y195D01*
X104Y195D01*
X104Y193D01*
X106Y193D01*
X106Y189D01*
X108Y189D01*
X108Y185D01*
X110Y185D01*
X110Y181D01*
X112Y181D01*
X112Y175D01*
X114Y175D01*
X114Y155D01*
X112Y155D01*
X112Y149D01*
X110Y149D01*
X110Y145D01*
X108Y145D01*
X108Y141D01*
X106Y141D01*
X106Y139D01*
X104Y139D01*
X104Y137D01*
X102Y137D01*
X102Y135D01*
X100Y135D01*
X100Y131D01*
X96Y131D01*
X96Y129D01*
X94Y129D01*
X94Y127D01*
X92Y127D01*
X92Y125D01*
X90Y125D01*
X90Y117D01*
X606Y117D01*
X606Y119D01*
X600Y119D01*
X600Y121D01*
X596Y121D01*
X596Y123D01*
X592Y123D01*
X592Y125D01*
X588Y125D01*
X588Y127D01*
X586Y127D01*
X586Y129D01*
X584Y129D01*
X584Y131D01*
X582Y131D01*
X582Y133D01*
X580Y133D01*
X580Y135D01*
X578Y135D01*
X578Y137D01*
X576Y137D01*
X576Y141D01*
X574Y141D01*
X574Y145D01*
X572Y145D01*
X572Y149D01*
X570Y149D01*
X570Y157D01*
X568Y157D01*
X568Y167D01*
X570Y167D01*
X570Y175D01*
X572Y175D01*
X572Y179D01*
X574Y179D01*
X574Y183D01*
X576Y183D01*
X576Y187D01*
X578Y187D01*
X578Y189D01*
X580Y189D01*
X580Y191D01*
X582Y191D01*
X582Y193D01*
X584Y193D01*
X584Y195D01*
X586Y195D01*
X586Y197D01*
X588Y197D01*
X588Y199D01*
X592Y199D01*
X592Y201D01*
X596Y201D01*
X596Y223D01*
X592Y223D01*
X592Y225D01*
X588Y225D01*
X588Y227D01*
X586Y227D01*
X586Y229D01*
X584Y229D01*
X584Y231D01*
X582Y231D01*
X582Y233D01*
X580Y233D01*
X580Y235D01*
X578Y235D01*
X578Y237D01*
X576Y237D01*
X576Y241D01*
X574Y241D01*
X574Y245D01*
X572Y245D01*
X572Y249D01*
X570Y249D01*
X570Y257D01*
X568Y257D01*
X568Y267D01*
X570Y267D01*
X570Y275D01*
X572Y275D01*
X572Y279D01*
X574Y279D01*
X574Y283D01*
X576Y283D01*
X576Y287D01*
X578Y287D01*
X578Y289D01*
X580Y289D01*
X580Y291D01*
X582Y291D01*
X582Y293D01*
X584Y293D01*
X584Y295D01*
X586Y295D01*
X586Y297D01*
X588Y297D01*
X588Y299D01*
X592Y299D01*
X592Y301D01*
X596Y301D01*
X596Y323D01*
X592Y323D01*
X592Y325D01*
X588Y325D01*
X588Y327D01*
X586Y327D01*
X586Y329D01*
X584Y329D01*
X584Y331D01*
X582Y331D01*
X582Y333D01*
X580Y333D01*
X580Y335D01*
X578Y335D01*
X578Y337D01*
X576Y337D01*
X576Y341D01*
X574Y341D01*
X574Y345D01*
X572Y345D01*
X572Y349D01*
X570Y349D01*
X570Y357D01*
X568Y357D01*
X568Y367D01*
X570Y367D01*
X570Y375D01*
X572Y375D01*
X572Y379D01*
X574Y379D01*
X574Y383D01*
X576Y383D01*
X576Y387D01*
X578Y387D01*
X578Y389D01*
X580Y389D01*
X580Y391D01*
X582Y391D01*
X582Y393D01*
X584Y393D01*
X584Y395D01*
X586Y395D01*
X586Y397D01*
X588Y397D01*
X588Y399D01*
X592Y399D01*
X592Y401D01*
X596Y401D01*
X596Y423D01*
X592Y423D01*
X592Y425D01*
X588Y425D01*
X588Y427D01*
X586Y427D01*
X586Y429D01*
X584Y429D01*
X584Y431D01*
X582Y431D01*
X582Y433D01*
X580Y433D01*
X580Y435D01*
X578Y435D01*
X578Y437D01*
X576Y437D01*
X576Y441D01*
X574Y441D01*
X574Y445D01*
X572Y445D01*
X572Y449D01*
X570Y449D01*
X570Y457D01*
X568Y457D01*
X568Y467D01*
X570Y467D01*
X570Y473D01*
X40Y473D01*
G37*
D02*
G36*
X40Y419D02*
X40Y417D01*
X64Y417D01*
X64Y419D01*
X40Y419D01*
G37*
D02*
G36*
X90Y117D02*
X90Y115D01*
X1226Y115D01*
X1226Y117D01*
X90Y117D01*
G37*
D02*
G36*
X90Y117D02*
X90Y115D01*
X1226Y115D01*
X1226Y117D01*
X90Y117D01*
G37*
D02*
G36*
X90Y115D02*
X90Y105D01*
X92Y105D01*
X92Y103D01*
X94Y103D01*
X94Y101D01*
X96Y101D01*
X96Y99D01*
X98Y99D01*
X98Y97D01*
X100Y97D01*
X100Y95D01*
X102Y95D01*
X102Y93D01*
X104Y93D01*
X104Y91D01*
X106Y91D01*
X106Y87D01*
X108Y87D01*
X108Y85D01*
X110Y85D01*
X110Y79D01*
X112Y79D01*
X112Y75D01*
X114Y75D01*
X114Y41D01*
X1226Y41D01*
X1226Y115D01*
X90Y115D01*
G37*
D02*
G36*
X1226Y1484D02*
X1252Y1484D01*
X1252Y1443D01*
X1226Y1443D01*
X1226Y1484D01*
G37*
D02*
G36*
X628Y1284D02*
X658Y1284D01*
X658Y1243D01*
X628Y1243D01*
X628Y1284D01*
G37*
D02*
G36*
X18Y394D02*
X44Y394D01*
X44Y349D01*
X18Y349D01*
X18Y394D01*
G37*
D02*
G36*
X82Y394D02*
X114Y394D01*
X114Y349D01*
X82Y349D01*
X82Y394D01*
G37*
D02*
G36*
X458Y1297D02*
X501Y1297D01*
X501Y1265D01*
X458Y1265D01*
X458Y1297D01*
G37*
D02*
G36*
X430Y1269D02*
X462Y1269D01*
X462Y1226D01*
X430Y1226D01*
X430Y1269D01*
G37*
D02*
G36*
X664Y1805D02*
X707Y1805D01*
X707Y1773D01*
X664Y1773D01*
X664Y1805D01*
G37*
D02*
G36*
X664Y1739D02*
X707Y1739D01*
X707Y1707D01*
X664Y1707D01*
X664Y1739D01*
G37*
D02*
G36*
X702Y1777D02*
X736Y1777D01*
X736Y1734D01*
X702Y1734D01*
X702Y1777D01*
G37*
D02*
G36*
X329Y1451D02*
X390Y1451D01*
X390Y1407D01*
X329Y1407D01*
X329Y1451D01*
G37*
D02*
G36*
X329Y1373D02*
X390Y1373D01*
X390Y1327D01*
X329Y1327D01*
X329Y1373D01*
G37*
D02*
G36*
X376Y1420D02*
X420Y1420D01*
X420Y1359D01*
X376Y1359D01*
X376Y1420D01*
G37*
D02*
G36*
X241Y1769D02*
X282Y1769D01*
X282Y1737D01*
X241Y1737D01*
X241Y1769D01*
G37*
D02*
G36*
X413Y1079D02*
X474Y1079D01*
X474Y1035D01*
X413Y1035D01*
X413Y1079D01*
G37*
D02*
G36*
X255Y2323D02*
X304Y2323D01*
X304Y2293D01*
X255Y2293D01*
X255Y2323D01*
G37*
D02*
G36*
X255Y2243D02*
X304Y2243D01*
X304Y2213D01*
X255Y2213D01*
X255Y2243D01*
G37*
D02*
G36*
X224Y2292D02*
X254Y2292D01*
X254Y2243D01*
X224Y2243D01*
X224Y2292D01*
G37*
D02*
G36*
X304Y2292D02*
X334Y2292D01*
X334Y2243D01*
X304Y2243D01*
X304Y2292D01*
G37*
D02*
G54D17*
X219Y1024D02*
X219Y1079D01*
X274Y1079D01*
X274Y1024D01*
X219Y1024D01*
D02*
G54D18*
D02*
G04 End of Copper1*
M02*