G04 MADE WITH FRITZING*
G04 WWW.FRITZING.ORG*
G04 DOUBLE SIDED*
G04 HOLES PLATED*
G04 CONTOUR ON CENTER OF CONTOUR VECTOR*
%ASAXBY*%
%FSLAX23Y23*%
%MOIN*%
%OFA0B0*%
%SFA1.0B1.0*%
%ADD10C,0.078000*%
%ADD11C,0.086000*%
%ADD12C,0.070000*%
%ADD13C,0.075000*%
%ADD14C,0.074000*%
%ADD15R,0.069972X0.070000*%
%ADD16C,0.024000*%
%ADD17C,0.020000*%
%ADD18R,0.001000X0.001000*%
%LNCOPPER1*%
G90*
G70*
G54D10*
X66Y64D03*
X66Y369D03*
G54D11*
X281Y2266D03*
X379Y2069D03*
X478Y2069D03*
X182Y2069D03*
X84Y2069D03*
X281Y2266D03*
X379Y2069D03*
X478Y2069D03*
X182Y2069D03*
X84Y2069D03*
X778Y2270D03*
X876Y2073D03*
X975Y2073D03*
X680Y2073D03*
X581Y2073D03*
X778Y2270D03*
X876Y2073D03*
X975Y2073D03*
X680Y2073D03*
X581Y2073D03*
G54D12*
X613Y1562D03*
X613Y1462D03*
X613Y1362D03*
X613Y1262D03*
X613Y1162D03*
X613Y1062D03*
X613Y962D03*
X613Y862D03*
X613Y762D03*
X613Y662D03*
X613Y562D03*
X613Y462D03*
X613Y362D03*
X613Y262D03*
X613Y162D03*
X1213Y1562D03*
X1213Y1462D03*
X1213Y1362D03*
X1213Y1262D03*
X1213Y1162D03*
X1213Y1062D03*
X1213Y962D03*
X1213Y862D03*
X1213Y762D03*
X1213Y662D03*
X1213Y562D03*
X1213Y462D03*
X1213Y362D03*
X1213Y262D03*
X1213Y162D03*
G54D10*
X66Y266D03*
X66Y165D03*
G54D13*
X688Y1753D03*
X1088Y1753D03*
X806Y1867D03*
X1206Y1867D03*
G54D12*
X1087Y2260D03*
X1187Y2260D03*
G54D13*
X246Y1052D03*
X146Y1052D03*
G54D12*
X164Y1782D03*
X264Y1782D03*
G54D13*
X446Y1093D03*
X163Y1376D03*
X80Y1154D03*
X80Y1554D03*
X362Y1387D03*
X79Y1670D03*
X466Y522D03*
X66Y522D03*
X466Y631D03*
X66Y631D03*
X466Y732D03*
X66Y732D03*
X466Y831D03*
X66Y831D03*
G54D14*
X478Y1858D03*
X428Y1783D03*
X378Y1858D03*
X478Y1858D03*
X428Y1783D03*
X378Y1858D03*
G54D13*
X482Y1645D03*
X482Y1245D03*
G54D15*
X613Y1562D03*
G54D16*
X356Y1843D02*
X286Y1796D01*
D02*
X393Y1705D02*
X659Y1749D01*
D02*
X286Y1769D02*
X393Y1705D01*
D02*
X1121Y1498D02*
X1124Y456D01*
D02*
X1200Y1839D02*
X1121Y1498D01*
D02*
X1124Y456D02*
X1193Y383D01*
D02*
X163Y1988D02*
X410Y1988D01*
D02*
X410Y1988D02*
X454Y2041D01*
D02*
X83Y1923D02*
X163Y1988D01*
D02*
X79Y1699D02*
X83Y1923D01*
D02*
X725Y2003D02*
X502Y1872D01*
D02*
X771Y2234D02*
X725Y2003D01*
G54D17*
X219Y1024D02*
X219Y1079D01*
X274Y1079D01*
X274Y1024D01*
X219Y1024D01*
D02*
G54D18*
D02*
G04 End of Copper1*
M02*